G04 #@! TF.GenerationSoftware,KiCad,Pcbnew,(6.0.4)*
G04 #@! TF.CreationDate,2022-04-13T12:38:05-04:00*
G04 #@! TF.ProjectId,temp_proto_v2,74656d70-5f70-4726-9f74-6f5f76322e6b,rev?*
G04 #@! TF.SameCoordinates,Original*
G04 #@! TF.FileFunction,Copper,L2,Bot*
G04 #@! TF.FilePolarity,Positive*
%FSLAX46Y46*%
G04 Gerber Fmt 4.6, Leading zero omitted, Abs format (unit mm)*
G04 Created by KiCad (PCBNEW (6.0.4)) date 2022-04-13 12:38:05*
%MOMM*%
%LPD*%
G01*
G04 APERTURE LIST*
G04 Aperture macros list*
%AMRoundRect*
0 Rectangle with rounded corners*
0 $1 Rounding radius*
0 $2 $3 $4 $5 $6 $7 $8 $9 X,Y pos of 4 corners*
0 Add a 4 corners polygon primitive as box body*
4,1,4,$2,$3,$4,$5,$6,$7,$8,$9,$2,$3,0*
0 Add four circle primitives for the rounded corners*
1,1,$1+$1,$2,$3*
1,1,$1+$1,$4,$5*
1,1,$1+$1,$6,$7*
1,1,$1+$1,$8,$9*
0 Add four rect primitives between the rounded corners*
20,1,$1+$1,$2,$3,$4,$5,0*
20,1,$1+$1,$4,$5,$6,$7,0*
20,1,$1+$1,$6,$7,$8,$9,0*
20,1,$1+$1,$8,$9,$2,$3,0*%
G04 Aperture macros list end*
G04 #@! TA.AperFunction,NonConductor*
%ADD10C,0.200000*%
G04 #@! TD*
G04 #@! TA.AperFunction,ComponentPad*
%ADD11R,0.850000X0.850000*%
G04 #@! TD*
G04 #@! TA.AperFunction,ComponentPad*
%ADD12O,0.850000X0.850000*%
G04 #@! TD*
G04 #@! TA.AperFunction,SMDPad,CuDef*
%ADD13RoundRect,0.250000X-0.450000X0.325000X-0.450000X-0.325000X0.450000X-0.325000X0.450000X0.325000X0*%
G04 #@! TD*
G04 #@! TA.AperFunction,SMDPad,CuDef*
%ADD14RoundRect,0.250000X0.450000X-0.325000X0.450000X0.325000X-0.450000X0.325000X-0.450000X-0.325000X0*%
G04 #@! TD*
G04 #@! TA.AperFunction,ViaPad*
%ADD15C,0.600000*%
G04 #@! TD*
G04 #@! TA.AperFunction,Conductor*
%ADD16C,0.200000*%
G04 #@! TD*
G04 #@! TA.AperFunction,Conductor*
%ADD17C,0.250000*%
G04 #@! TD*
G04 APERTURE END LIST*
D10*
X172040000Y-112560000D02*
X172530000Y-112510000D01*
D11*
X140207194Y-112526177D03*
D12*
X139207194Y-112526177D03*
X140207194Y-111526177D03*
X139207194Y-111526177D03*
X140207194Y-110526177D03*
X139207194Y-110526177D03*
D11*
X172015380Y-112524372D03*
D12*
X171015380Y-112524372D03*
X172015380Y-111524372D03*
X171015380Y-111524372D03*
X172015380Y-110524372D03*
X171015380Y-110524372D03*
D13*
X144526000Y-110481000D03*
X144526000Y-112531000D03*
X147574000Y-110481000D03*
X147574000Y-112531000D03*
X150622000Y-110481000D03*
X150622000Y-112531000D03*
D14*
X162877500Y-112395000D03*
X162877500Y-110345000D03*
X165180000Y-112415000D03*
X165180000Y-110365000D03*
X167720000Y-112510000D03*
X167720000Y-110460000D03*
D13*
X156972000Y-110735000D03*
X156972000Y-112785000D03*
D15*
X160784772Y-113759501D03*
X140073958Y-109198136D03*
X156119992Y-109514216D03*
X172663516Y-108776468D03*
X155432979Y-113010011D03*
X143347564Y-113484332D03*
X170200000Y-114010000D03*
X138956132Y-108904803D03*
X141020000Y-109700000D03*
X160454803Y-110476391D03*
X165160000Y-113590000D03*
X170920000Y-113960000D03*
X155421633Y-108734840D03*
X149400692Y-108802014D03*
X146724064Y-113574897D03*
X170939068Y-108617680D03*
X142000000Y-110680000D03*
X141366732Y-112434092D03*
X162016637Y-111349630D03*
X139157556Y-114035270D03*
X168573120Y-111491212D03*
X146400277Y-111855510D03*
X149428538Y-113574590D03*
X155550298Y-111811000D03*
X144802466Y-108678837D03*
X169040257Y-112742002D03*
X160367468Y-109540526D03*
X168904562Y-109986106D03*
X142876705Y-110578408D03*
X145730335Y-112436916D03*
X149213179Y-110795680D03*
X163981827Y-110734583D03*
X166402678Y-111815500D03*
X166414233Y-110451087D03*
X163875327Y-113231504D03*
X160896805Y-112407755D03*
D16*
X161975000Y-112200000D02*
X162180000Y-112200000D01*
X161652500Y-111877500D02*
X161975000Y-112200000D01*
X161652500Y-111877500D02*
X161384520Y-111609520D01*
X162560000Y-112785000D02*
X161652500Y-111877500D01*
X160290641Y-114253632D02*
X140485627Y-114253632D01*
X160784772Y-113759501D02*
X160290641Y-114253632D01*
X170131751Y-113408001D02*
X171015380Y-112524372D01*
X169025580Y-114252961D02*
X169870540Y-113408001D01*
X160784772Y-113759501D02*
X161278232Y-114252961D01*
X161278232Y-114252961D02*
X169025580Y-114252961D01*
X140485627Y-114253632D02*
X139207194Y-112975199D01*
X169870540Y-113408001D02*
X170131751Y-113408001D01*
X139207194Y-112975199D02*
X139207194Y-112526177D01*
D17*
X172963783Y-110034618D02*
X172963783Y-112178899D01*
X143677429Y-109108887D02*
X144082758Y-109514216D01*
X156119992Y-109514216D02*
X156563698Y-109070510D01*
X156119992Y-109514216D02*
X156119992Y-110014503D01*
X140300977Y-108971117D02*
X142472383Y-108971117D01*
X156119992Y-110014503D02*
X156840489Y-110735000D01*
X160755320Y-109045185D02*
X168457686Y-109045186D01*
X156972000Y-110735000D02*
X156882665Y-110735000D01*
X140073958Y-109198136D02*
X140300977Y-108971117D01*
X159981868Y-108916015D02*
X160626150Y-108916015D01*
X172304506Y-109375341D02*
X172963783Y-110034618D01*
X168457686Y-109045186D02*
X168774095Y-109361595D01*
X142610152Y-109108886D02*
X143677429Y-109108887D01*
X159827373Y-109070510D02*
X159981868Y-108916015D01*
X142472383Y-108971117D02*
X142610152Y-109108886D01*
X144082758Y-109514216D02*
X156119992Y-109514216D01*
X169176990Y-109375341D02*
X172304506Y-109375341D01*
X156563698Y-109070510D02*
X159827373Y-109070510D01*
X172963783Y-112178899D02*
X172620682Y-112522000D01*
D16*
X172236614Y-112522000D02*
X172212000Y-112522000D01*
D17*
X168774095Y-109361595D02*
X169163244Y-109361595D01*
X156840489Y-110735000D02*
X156972000Y-110735000D01*
X160626150Y-108916015D02*
X160755320Y-109045185D01*
X169163244Y-109361595D02*
X169176990Y-109375341D01*
X172620682Y-112522000D02*
X172212000Y-112522000D01*
X139207194Y-111526177D02*
X138737282Y-111526177D01*
X138449657Y-111238552D02*
X138449657Y-112673791D01*
X138737282Y-111526177D02*
X138449657Y-111238552D01*
D16*
X144449180Y-110481000D02*
X144526000Y-110481000D01*
X140207194Y-111526177D02*
X140231808Y-111526177D01*
X167625000Y-112415000D02*
X167720000Y-112510000D01*
X151085232Y-110017768D02*
X150622000Y-110481000D01*
X147574000Y-110481000D02*
X148033488Y-110021512D01*
X143501586Y-109533406D02*
X144449180Y-110481000D01*
X140231808Y-111526177D02*
X142224579Y-109533406D01*
X161384520Y-111609520D02*
X156196656Y-111609520D01*
X144991899Y-110015101D02*
X147108101Y-110015101D01*
X142224579Y-109533406D02*
X143501586Y-109533406D01*
X165180000Y-112415000D02*
X167625000Y-112415000D01*
X148033488Y-110021512D02*
X150162512Y-110021512D01*
X155508587Y-110017768D02*
X151085232Y-110017768D01*
X155798625Y-111211489D02*
X155798625Y-110307806D01*
X150162512Y-110021512D02*
X150622000Y-110481000D01*
X169040257Y-112742002D02*
X168997259Y-112785000D01*
X147108101Y-110015101D02*
X147574000Y-110481000D01*
X144526000Y-110481000D02*
X144991899Y-110015101D01*
X165160000Y-112395000D02*
X165180000Y-112415000D01*
X162877500Y-112395000D02*
X165160000Y-112395000D01*
X156196656Y-111609520D02*
X155798625Y-111211489D01*
X155798625Y-110307806D02*
X155508587Y-110017768D01*
X168997259Y-112785000D02*
X167640000Y-112785000D01*
X168798244Y-109986106D02*
X168281843Y-109469705D01*
X168281843Y-109469705D02*
X160438289Y-109469705D01*
X168932243Y-110013787D02*
X170501351Y-110013787D01*
X170715277Y-109799861D02*
X171489861Y-109799861D01*
X170501351Y-110013787D02*
X170715277Y-109799861D01*
X160438289Y-109469705D02*
X160367468Y-109540526D01*
X168904562Y-109986106D02*
X168932243Y-110013787D01*
X168904562Y-109986106D02*
X168798244Y-109986106D01*
X171489861Y-109799861D02*
X172212000Y-110522000D01*
X140367160Y-110490000D02*
X140192000Y-110490000D01*
X142876705Y-110578408D02*
X142876705Y-111021120D01*
X144386585Y-112531000D02*
X144526000Y-112531000D01*
X142876705Y-111021120D02*
X144386585Y-112531000D01*
X145824419Y-112531000D02*
X147574000Y-112531000D01*
X145730335Y-112436916D02*
X145824419Y-112531000D01*
X149225000Y-110807500D02*
X149225000Y-111262984D01*
X150493016Y-112531000D02*
X150622000Y-112531000D01*
X149225000Y-111262984D02*
X150493016Y-112531000D01*
X163981827Y-110734583D02*
X162886917Y-110734583D01*
X162886917Y-110734583D02*
X162877500Y-110744000D01*
X166402678Y-111815500D02*
X166402678Y-111287354D01*
X166402678Y-111287354D02*
X165480324Y-110365000D01*
X165480324Y-110365000D02*
X165180000Y-110365000D01*
X166414233Y-110451087D02*
X167356087Y-110451087D01*
X167356087Y-110451087D02*
X167640000Y-110735000D01*
X163837311Y-113269520D02*
X161758569Y-113269520D01*
X161758569Y-113269520D02*
X160949049Y-112460000D01*
X163875327Y-113231504D02*
X163837311Y-113269520D01*
G04 #@! TA.AperFunction,Conductor*
G36*
X154074872Y-108086616D02*
G01*
X173362688Y-108093954D01*
X173390261Y-108105387D01*
X173401673Y-108132897D01*
X173409427Y-113479581D01*
X173397634Y-113507580D01*
X171948654Y-114918428D01*
X171921436Y-114929486D01*
X138119489Y-114919535D01*
X138091915Y-114908104D01*
X138080500Y-114880535D01*
X138080500Y-111784524D01*
X138310123Y-111784524D01*
X138349529Y-111905807D01*
X138351183Y-111909524D01*
X138447203Y-112075832D01*
X138449590Y-112079118D01*
X138578089Y-112221832D01*
X138581113Y-112224555D01*
X138613101Y-112247796D01*
X138628697Y-112273246D01*
X138626513Y-112293514D01*
X138600977Y-112359012D01*
X138596896Y-112369479D01*
X138596589Y-112371811D01*
X138584307Y-112465104D01*
X138577135Y-112519579D01*
X138593748Y-112670060D01*
X138594555Y-112672265D01*
X138642398Y-112803002D01*
X138645776Y-112812234D01*
X138647089Y-112814188D01*
X138647090Y-112814190D01*
X138716242Y-112917098D01*
X138730216Y-112937893D01*
X138842192Y-113039784D01*
X138910864Y-113077070D01*
X138925453Y-113090878D01*
X138935902Y-113107830D01*
X138938273Y-113111676D01*
X138940906Y-113116745D01*
X138952029Y-113142634D01*
X138953158Y-113145262D01*
X138954905Y-113147388D01*
X138956570Y-113149416D01*
X138956577Y-113149423D01*
X138957172Y-113150148D01*
X138966498Y-113159474D01*
X138972120Y-113166586D01*
X138980726Y-113180547D01*
X138993701Y-113190413D01*
X139007192Y-113200672D01*
X139011163Y-113204139D01*
X140233512Y-114426489D01*
X140237245Y-114430813D01*
X140238620Y-114432664D01*
X140240202Y-114435901D01*
X140242844Y-114438351D01*
X140242844Y-114438352D01*
X140277278Y-114470294D01*
X140278332Y-114471309D01*
X140292903Y-114485880D01*
X140295061Y-114487360D01*
X140299514Y-114490921D01*
X140322273Y-114512033D01*
X140334684Y-114516984D01*
X140339165Y-114518772D01*
X140346777Y-114522836D01*
X140361773Y-114533124D01*
X140377900Y-114536951D01*
X140391969Y-114540290D01*
X140397416Y-114542012D01*
X140402422Y-114544009D01*
X140426249Y-114553515D01*
X140428987Y-114553783D01*
X140428989Y-114553784D01*
X140430743Y-114553956D01*
X140432542Y-114554132D01*
X140445734Y-114554132D01*
X140454739Y-114555186D01*
X140467191Y-114558141D01*
X140470693Y-114558972D01*
X140474257Y-114558487D01*
X140474258Y-114558487D01*
X140500771Y-114554879D01*
X140503641Y-114554488D01*
X140508900Y-114554132D01*
X160234592Y-114554132D01*
X160240289Y-114554550D01*
X160242578Y-114554888D01*
X160245983Y-114556057D01*
X160249580Y-114555922D01*
X160296548Y-114554159D01*
X160298011Y-114554132D01*
X160318589Y-114554132D01*
X160321160Y-114553653D01*
X160326826Y-114553023D01*
X160345449Y-114552324D01*
X160357849Y-114551858D01*
X160361156Y-114550437D01*
X160361161Y-114550436D01*
X160374559Y-114544680D01*
X160382811Y-114542173D01*
X160397152Y-114539502D01*
X160397159Y-114539499D01*
X160400694Y-114538841D01*
X160403759Y-114536952D01*
X160403761Y-114536951D01*
X160427118Y-114522554D01*
X160432187Y-114519920D01*
X160432679Y-114519709D01*
X160439731Y-114516679D01*
X160458175Y-114508755D01*
X160458177Y-114508754D01*
X160460704Y-114507668D01*
X160463647Y-114505250D01*
X160464858Y-114504256D01*
X160464865Y-114504249D01*
X160465590Y-114503654D01*
X160474916Y-114494328D01*
X160482028Y-114488706D01*
X160492922Y-114481991D01*
X160492924Y-114481990D01*
X160495989Y-114480100D01*
X160516115Y-114453633D01*
X160519581Y-114449663D01*
X160698761Y-114270483D01*
X160727053Y-114259067D01*
X160846104Y-114261250D01*
X160872966Y-114272666D01*
X161026111Y-114425811D01*
X161029842Y-114430133D01*
X161031227Y-114431997D01*
X161032807Y-114435230D01*
X161035447Y-114437679D01*
X161069897Y-114469636D01*
X161070951Y-114470651D01*
X161085509Y-114485209D01*
X161087422Y-114486521D01*
X161087660Y-114486685D01*
X161092121Y-114490253D01*
X161112237Y-114508913D01*
X161112240Y-114508915D01*
X161114878Y-114511362D01*
X161118223Y-114512696D01*
X161118222Y-114512696D01*
X161131766Y-114518100D01*
X161139374Y-114522162D01*
X161154378Y-114532454D01*
X161170501Y-114536280D01*
X161184578Y-114539621D01*
X161190024Y-114541343D01*
X161216295Y-114551824D01*
X161216301Y-114551825D01*
X161218854Y-114552844D01*
X161221592Y-114553112D01*
X161221594Y-114553113D01*
X161223348Y-114553285D01*
X161225147Y-114553461D01*
X161238339Y-114553461D01*
X161247343Y-114554515D01*
X161263298Y-114558301D01*
X161266862Y-114557816D01*
X161266863Y-114557816D01*
X161294622Y-114554038D01*
X161296246Y-114553817D01*
X161301505Y-114553461D01*
X168969531Y-114553461D01*
X168975228Y-114553879D01*
X168977517Y-114554217D01*
X168980922Y-114555386D01*
X168984519Y-114555251D01*
X169031487Y-114553488D01*
X169032950Y-114553461D01*
X169053528Y-114553461D01*
X169056099Y-114552982D01*
X169061765Y-114552352D01*
X169080388Y-114551653D01*
X169092788Y-114551187D01*
X169096095Y-114549766D01*
X169096100Y-114549765D01*
X169109498Y-114544009D01*
X169117750Y-114541502D01*
X169132091Y-114538831D01*
X169132098Y-114538828D01*
X169135633Y-114538170D01*
X169138698Y-114536281D01*
X169138700Y-114536280D01*
X169162057Y-114521883D01*
X169167126Y-114519249D01*
X169168237Y-114518772D01*
X169174670Y-114516008D01*
X169193114Y-114508084D01*
X169193116Y-114508083D01*
X169195643Y-114506997D01*
X169198579Y-114504585D01*
X169199797Y-114503585D01*
X169199804Y-114503578D01*
X169200529Y-114502983D01*
X169209855Y-114493657D01*
X169216967Y-114488035D01*
X169227861Y-114481320D01*
X169227863Y-114481319D01*
X169230928Y-114479429D01*
X169251054Y-114452962D01*
X169254520Y-114448992D01*
X169983588Y-113719924D01*
X170011165Y-113708501D01*
X170075702Y-113708501D01*
X170081399Y-113708919D01*
X170083688Y-113709257D01*
X170087093Y-113710426D01*
X170090690Y-113710291D01*
X170137658Y-113708528D01*
X170139121Y-113708501D01*
X170159699Y-113708501D01*
X170162270Y-113708022D01*
X170167936Y-113707392D01*
X170186559Y-113706693D01*
X170198959Y-113706227D01*
X170202266Y-113704806D01*
X170202271Y-113704805D01*
X170215669Y-113699049D01*
X170223921Y-113696542D01*
X170238262Y-113693871D01*
X170238269Y-113693868D01*
X170241804Y-113693210D01*
X170244869Y-113691321D01*
X170244871Y-113691320D01*
X170268228Y-113676923D01*
X170273297Y-113674289D01*
X170299285Y-113663124D01*
X170299287Y-113663123D01*
X170301814Y-113662037D01*
X170304750Y-113659625D01*
X170305968Y-113658625D01*
X170305975Y-113658618D01*
X170306700Y-113658023D01*
X170316026Y-113648697D01*
X170323138Y-113643075D01*
X170334032Y-113636360D01*
X170334034Y-113636359D01*
X170337099Y-113634469D01*
X170357225Y-113608002D01*
X170360691Y-113604032D01*
X170823908Y-113140815D01*
X170851485Y-113129392D01*
X170861378Y-113130668D01*
X170929866Y-113148636D01*
X170932218Y-113148673D01*
X171078888Y-113150977D01*
X171081243Y-113151014D01*
X171083535Y-113150489D01*
X171083536Y-113150489D01*
X171226530Y-113117739D01*
X171226532Y-113117738D01*
X171228817Y-113117215D01*
X171234985Y-113114113D01*
X171361966Y-113050249D01*
X171361968Y-113050248D01*
X171364069Y-113049191D01*
X171365859Y-113047662D01*
X171367435Y-113046615D01*
X171396726Y-113040868D01*
X171421444Y-113057431D01*
X171445828Y-113093924D01*
X171449023Y-113096059D01*
X171454031Y-113099405D01*
X171512149Y-113138239D01*
X171515912Y-113138987D01*
X171515913Y-113138988D01*
X171568760Y-113149500D01*
X171568764Y-113149500D01*
X171570632Y-113149872D01*
X172460128Y-113149872D01*
X172461996Y-113149500D01*
X172462000Y-113149500D01*
X172514847Y-113138988D01*
X172514848Y-113138987D01*
X172518611Y-113138239D01*
X172576729Y-113099405D01*
X172581737Y-113096059D01*
X172584932Y-113093924D01*
X172629247Y-113027603D01*
X172640880Y-112969120D01*
X172640880Y-112883496D01*
X172652303Y-112855919D01*
X172669786Y-112845825D01*
X172689559Y-112840527D01*
X172692881Y-112839790D01*
X172730366Y-112833181D01*
X172730368Y-112833180D01*
X172733727Y-112832588D01*
X172741872Y-112827885D01*
X172751277Y-112823990D01*
X172760366Y-112821554D01*
X172776832Y-112810024D01*
X172794344Y-112797762D01*
X172797214Y-112795934D01*
X172830184Y-112776899D01*
X172833137Y-112775194D01*
X172850502Y-112754500D01*
X172859808Y-112743409D01*
X172862107Y-112740901D01*
X173182686Y-112420322D01*
X173185194Y-112418023D01*
X173186801Y-112416675D01*
X173196361Y-112408653D01*
X173214366Y-112393545D01*
X173216977Y-112391354D01*
X173229606Y-112369479D01*
X173237717Y-112355431D01*
X173239545Y-112352561D01*
X173261382Y-112321375D01*
X173263337Y-112318583D01*
X173265773Y-112309494D01*
X173269668Y-112300090D01*
X173272664Y-112294901D01*
X173272664Y-112294900D01*
X173274371Y-112291944D01*
X173275951Y-112282987D01*
X173281573Y-112251098D01*
X173282310Y-112247776D01*
X173292165Y-112211000D01*
X173292165Y-112210996D01*
X173293047Y-112207706D01*
X173292427Y-112200610D01*
X173289431Y-112166377D01*
X173289283Y-112162978D01*
X173289283Y-110050527D01*
X173289431Y-110047128D01*
X173292749Y-110009206D01*
X173293046Y-110005811D01*
X173282309Y-109965741D01*
X173281575Y-109962433D01*
X173281074Y-109959587D01*
X173274371Y-109921573D01*
X173271040Y-109915803D01*
X173269666Y-109913422D01*
X173265772Y-109904022D01*
X173264220Y-109898232D01*
X173264219Y-109898231D01*
X173263336Y-109894934D01*
X173239547Y-109860959D01*
X173237721Y-109858093D01*
X173218682Y-109825116D01*
X173216977Y-109822163D01*
X173185198Y-109795497D01*
X173182690Y-109793198D01*
X172545928Y-109156437D01*
X172543629Y-109153929D01*
X172519152Y-109124758D01*
X172516961Y-109122147D01*
X172514008Y-109120442D01*
X172481038Y-109101407D01*
X172478168Y-109099579D01*
X172446982Y-109077742D01*
X172444190Y-109075787D01*
X172435101Y-109073351D01*
X172425697Y-109069456D01*
X172420508Y-109066460D01*
X172420507Y-109066460D01*
X172417551Y-109064753D01*
X172414192Y-109064161D01*
X172414190Y-109064160D01*
X172376705Y-109057551D01*
X172373383Y-109056814D01*
X172336607Y-109046959D01*
X172336603Y-109046959D01*
X172333313Y-109046077D01*
X172291984Y-109049693D01*
X172288585Y-109049841D01*
X169273090Y-109049841D01*
X169266318Y-109049249D01*
X169258027Y-109047787D01*
X169256562Y-109047529D01*
X169235443Y-109043805D01*
X169232121Y-109043068D01*
X169195345Y-109033213D01*
X169195341Y-109033213D01*
X169192051Y-109032331D01*
X169150722Y-109035947D01*
X169147323Y-109036095D01*
X168925075Y-109036095D01*
X168897498Y-109024672D01*
X168699109Y-108826283D01*
X168696810Y-108823775D01*
X168672332Y-108794603D01*
X168670141Y-108791992D01*
X168667188Y-108790287D01*
X168634218Y-108771252D01*
X168631348Y-108769424D01*
X168600162Y-108747587D01*
X168597370Y-108745632D01*
X168588281Y-108743196D01*
X168578877Y-108739301D01*
X168573688Y-108736305D01*
X168573687Y-108736305D01*
X168570731Y-108734598D01*
X168567372Y-108734006D01*
X168567370Y-108734005D01*
X168529885Y-108727396D01*
X168526563Y-108726659D01*
X168489787Y-108716804D01*
X168489783Y-108716804D01*
X168486493Y-108715922D01*
X168445164Y-108719538D01*
X168441765Y-108719686D01*
X167721590Y-108719686D01*
X160906300Y-108719685D01*
X160878723Y-108708262D01*
X160867573Y-108697112D01*
X160865274Y-108694604D01*
X160840796Y-108665432D01*
X160838605Y-108662821D01*
X160820884Y-108652590D01*
X160802682Y-108642081D01*
X160799812Y-108640253D01*
X160768626Y-108618416D01*
X160765834Y-108616461D01*
X160756745Y-108614025D01*
X160747341Y-108610130D01*
X160742152Y-108607134D01*
X160742151Y-108607134D01*
X160739195Y-108605427D01*
X160735836Y-108604835D01*
X160735834Y-108604834D01*
X160698349Y-108598225D01*
X160695027Y-108597488D01*
X160658251Y-108587633D01*
X160658247Y-108587633D01*
X160654957Y-108586751D01*
X160613628Y-108590367D01*
X160610229Y-108590515D01*
X159997789Y-108590515D01*
X159994390Y-108590367D01*
X159953061Y-108586751D01*
X159949771Y-108587633D01*
X159949767Y-108587633D01*
X159912991Y-108597488D01*
X159909669Y-108598225D01*
X159872184Y-108604834D01*
X159872182Y-108604835D01*
X159868823Y-108605427D01*
X159865867Y-108607134D01*
X159865866Y-108607134D01*
X159860677Y-108610130D01*
X159851273Y-108614025D01*
X159842184Y-108616461D01*
X159839392Y-108618416D01*
X159808206Y-108640253D01*
X159805336Y-108642081D01*
X159787134Y-108652590D01*
X159769413Y-108662821D01*
X159767222Y-108665432D01*
X159742742Y-108694606D01*
X159740443Y-108697114D01*
X159703970Y-108733587D01*
X159676393Y-108745010D01*
X156579619Y-108745010D01*
X156576220Y-108744862D01*
X156557190Y-108743197D01*
X156534891Y-108741246D01*
X156531601Y-108742128D01*
X156531597Y-108742128D01*
X156494821Y-108751983D01*
X156491499Y-108752720D01*
X156454014Y-108759329D01*
X156454012Y-108759330D01*
X156450653Y-108759922D01*
X156447697Y-108761629D01*
X156447696Y-108761629D01*
X156442507Y-108764625D01*
X156433103Y-108768520D01*
X156424014Y-108770956D01*
X156421222Y-108772911D01*
X156390036Y-108794748D01*
X156387166Y-108796576D01*
X156354196Y-108815611D01*
X156351243Y-108817316D01*
X156349052Y-108819927D01*
X156324572Y-108849101D01*
X156322273Y-108851609D01*
X156171493Y-109002389D01*
X156143678Y-109013811D01*
X156060122Y-109013301D01*
X156051368Y-109013247D01*
X156048703Y-109014009D01*
X156048701Y-109014009D01*
X155945480Y-109043510D01*
X155913521Y-109052644D01*
X155792272Y-109129146D01*
X155790433Y-109131228D01*
X155790432Y-109131229D01*
X155751305Y-109175532D01*
X155722073Y-109188716D01*
X144233738Y-109188716D01*
X144206161Y-109177293D01*
X143918852Y-108889984D01*
X143916553Y-108887476D01*
X143892075Y-108858304D01*
X143889884Y-108855693D01*
X143878466Y-108849101D01*
X143853961Y-108834953D01*
X143851091Y-108833125D01*
X143819905Y-108811288D01*
X143817113Y-108809333D01*
X143808024Y-108806897D01*
X143798620Y-108803002D01*
X143793431Y-108800006D01*
X143793430Y-108800006D01*
X143790474Y-108798299D01*
X143787115Y-108797707D01*
X143787113Y-108797706D01*
X143749628Y-108791097D01*
X143746306Y-108790360D01*
X143709530Y-108780505D01*
X143709526Y-108780505D01*
X143706236Y-108779623D01*
X143664908Y-108783239D01*
X143661509Y-108783387D01*
X143575459Y-108783387D01*
X142761132Y-108783386D01*
X142733555Y-108771963D01*
X142713806Y-108752214D01*
X142711507Y-108749706D01*
X142687029Y-108720534D01*
X142684838Y-108717923D01*
X142681372Y-108715922D01*
X142648915Y-108697183D01*
X142646045Y-108695355D01*
X142614859Y-108673518D01*
X142612067Y-108671563D01*
X142602978Y-108669127D01*
X142593574Y-108665232D01*
X142588385Y-108662236D01*
X142588384Y-108662236D01*
X142585428Y-108660529D01*
X142582069Y-108659937D01*
X142582067Y-108659936D01*
X142544582Y-108653327D01*
X142541260Y-108652590D01*
X142504484Y-108642735D01*
X142504480Y-108642735D01*
X142501190Y-108641853D01*
X142491098Y-108642736D01*
X142459861Y-108645469D01*
X142456462Y-108645617D01*
X140316887Y-108645617D01*
X140313488Y-108645469D01*
X140275565Y-108642151D01*
X140272170Y-108641854D01*
X140232087Y-108652594D01*
X140228787Y-108653325D01*
X140187932Y-108660529D01*
X140184976Y-108662236D01*
X140184972Y-108662237D01*
X140179784Y-108665232D01*
X140170381Y-108669128D01*
X140161293Y-108671563D01*
X140158503Y-108673517D01*
X140158500Y-108673518D01*
X140142563Y-108684678D01*
X140133873Y-108690762D01*
X140111267Y-108697814D01*
X140005334Y-108697167D01*
X140002669Y-108697929D01*
X140002667Y-108697929D01*
X139900597Y-108727101D01*
X139867487Y-108736564D01*
X139746238Y-108813066D01*
X139744401Y-108815146D01*
X139679375Y-108888775D01*
X139651335Y-108920524D01*
X139650158Y-108923031D01*
X139650156Y-108923034D01*
X139622429Y-108982092D01*
X139590405Y-109050299D01*
X139589978Y-109053042D01*
X139579219Y-109122147D01*
X139568349Y-109191959D01*
X139586938Y-109334115D01*
X139644678Y-109465339D01*
X139736928Y-109575084D01*
X139739239Y-109576622D01*
X139739242Y-109576625D01*
X139816291Y-109627913D01*
X139856271Y-109654526D01*
X139880822Y-109662196D01*
X139990463Y-109696450D01*
X139990466Y-109696451D01*
X139993115Y-109697278D01*
X139995895Y-109697329D01*
X140039746Y-109698133D01*
X140136457Y-109699906D01*
X140145910Y-109697329D01*
X140272094Y-109662927D01*
X140274775Y-109662196D01*
X140396949Y-109587181D01*
X140493158Y-109480890D01*
X140555668Y-109351869D01*
X140559491Y-109329146D01*
X140575330Y-109303847D01*
X140597950Y-109296617D01*
X141942242Y-109296617D01*
X141969819Y-109308040D01*
X141981242Y-109335617D01*
X141969819Y-109363194D01*
X141417211Y-109915803D01*
X140890668Y-110442346D01*
X140863091Y-110453769D01*
X140835514Y-110442346D01*
X140824373Y-110419454D01*
X140819382Y-110378207D01*
X140819382Y-110378206D01*
X140819100Y-110375878D01*
X140818271Y-110373684D01*
X140818270Y-110373680D01*
X140766417Y-110236457D01*
X140765586Y-110234257D01*
X140679834Y-110109488D01*
X140672639Y-110103077D01*
X140612652Y-110049631D01*
X140566797Y-110008776D01*
X140564724Y-110007678D01*
X140564722Y-110007677D01*
X140460296Y-109952387D01*
X140432999Y-109937934D01*
X140286166Y-109901051D01*
X140212199Y-109900664D01*
X140137132Y-109900271D01*
X140137129Y-109900271D01*
X140134773Y-109900259D01*
X140058310Y-109918616D01*
X139989847Y-109935052D01*
X139989846Y-109935053D01*
X139987561Y-109935601D01*
X139941089Y-109959587D01*
X139855119Y-110003959D01*
X139855117Y-110003960D01*
X139853029Y-110005038D01*
X139738943Y-110104562D01*
X139737590Y-110106487D01*
X139736170Y-110108064D01*
X139709229Y-110120915D01*
X139681091Y-110110951D01*
X139680267Y-110110118D01*
X139679834Y-110109488D01*
X139672639Y-110103077D01*
X139601527Y-110039719D01*
X139566797Y-110008776D01*
X139564724Y-110007678D01*
X139564722Y-110007677D01*
X139460296Y-109952387D01*
X139432999Y-109937934D01*
X139286166Y-109901051D01*
X139212199Y-109900664D01*
X139137132Y-109900271D01*
X139137129Y-109900271D01*
X139134773Y-109900259D01*
X139058310Y-109918616D01*
X138989847Y-109935052D01*
X138989846Y-109935053D01*
X138987561Y-109935601D01*
X138941089Y-109959587D01*
X138855119Y-110003959D01*
X138855117Y-110003960D01*
X138853029Y-110005038D01*
X138851258Y-110006583D01*
X138741690Y-110102166D01*
X138738943Y-110104562D01*
X138737590Y-110106487D01*
X138653243Y-110226500D01*
X138653241Y-110226504D01*
X138651890Y-110228426D01*
X138651035Y-110230619D01*
X138599396Y-110363068D01*
X138596896Y-110369479D01*
X138596589Y-110371811D01*
X138577608Y-110515989D01*
X138577135Y-110519579D01*
X138593748Y-110670060D01*
X138624967Y-110755369D01*
X138626577Y-110759769D01*
X138625327Y-110789592D01*
X138612875Y-110804724D01*
X138581112Y-110827801D01*
X138578087Y-110830524D01*
X138449590Y-110973236D01*
X138447203Y-110976522D01*
X138351183Y-111142830D01*
X138349529Y-111146547D01*
X138311108Y-111264798D01*
X138311574Y-111270718D01*
X138313281Y-111272177D01*
X139422194Y-111272177D01*
X139449771Y-111283600D01*
X139461194Y-111311177D01*
X139461194Y-111741177D01*
X139449771Y-111768754D01*
X139422194Y-111780177D01*
X138316467Y-111780177D01*
X138310982Y-111782449D01*
X138310123Y-111784524D01*
X138080500Y-111784524D01*
X138080500Y-108119546D01*
X138091923Y-108091969D01*
X138119515Y-108080546D01*
X154074872Y-108086616D01*
G37*
G04 #@! TD.AperFunction*
G04 #@! TA.AperFunction,Conductor*
G36*
X143388538Y-109845329D02*
G01*
X143614246Y-110071038D01*
X143625624Y-110100455D01*
X143625586Y-110101253D01*
X143625500Y-110102166D01*
X143625500Y-110859834D01*
X143628481Y-110891369D01*
X143629269Y-110893613D01*
X143666062Y-110998384D01*
X143673366Y-111019184D01*
X143675096Y-111021526D01*
X143675098Y-111021530D01*
X143736610Y-111104809D01*
X143753850Y-111128150D01*
X143756191Y-111129879D01*
X143860470Y-111206902D01*
X143860474Y-111206904D01*
X143862816Y-111208634D01*
X143865568Y-111209600D01*
X143865569Y-111209601D01*
X143988387Y-111252731D01*
X143990631Y-111253519D01*
X143992996Y-111253743D01*
X143992998Y-111253743D01*
X144011672Y-111255508D01*
X144022166Y-111256500D01*
X145029834Y-111256500D01*
X145040328Y-111255508D01*
X145059002Y-111253743D01*
X145059004Y-111253743D01*
X145061369Y-111253519D01*
X145063613Y-111252731D01*
X145186431Y-111209601D01*
X145186432Y-111209600D01*
X145189184Y-111208634D01*
X145191526Y-111206904D01*
X145191530Y-111206902D01*
X145295809Y-111129879D01*
X145298150Y-111128150D01*
X145315390Y-111104809D01*
X145376902Y-111021530D01*
X145376904Y-111021526D01*
X145378634Y-111019184D01*
X145385939Y-110998384D01*
X145422731Y-110893613D01*
X145423519Y-110891369D01*
X145426500Y-110859834D01*
X145426500Y-110354601D01*
X145437923Y-110327024D01*
X145465500Y-110315601D01*
X146634500Y-110315601D01*
X146662077Y-110327024D01*
X146673500Y-110354601D01*
X146673500Y-110859834D01*
X146676481Y-110891369D01*
X146677269Y-110893613D01*
X146714062Y-110998384D01*
X146721366Y-111019184D01*
X146723096Y-111021526D01*
X146723098Y-111021530D01*
X146784610Y-111104809D01*
X146801850Y-111128150D01*
X146804191Y-111129879D01*
X146908470Y-111206902D01*
X146908474Y-111206904D01*
X146910816Y-111208634D01*
X146913568Y-111209600D01*
X146913569Y-111209601D01*
X147036387Y-111252731D01*
X147038631Y-111253519D01*
X147040996Y-111253743D01*
X147040998Y-111253743D01*
X147059672Y-111255508D01*
X147070166Y-111256500D01*
X148077834Y-111256500D01*
X148088328Y-111255508D01*
X148107002Y-111253743D01*
X148107004Y-111253743D01*
X148109369Y-111253519D01*
X148111613Y-111252731D01*
X148234431Y-111209601D01*
X148234432Y-111209600D01*
X148237184Y-111208634D01*
X148239526Y-111206904D01*
X148239530Y-111206902D01*
X148343809Y-111129879D01*
X148346150Y-111128150D01*
X148363390Y-111104809D01*
X148424902Y-111021530D01*
X148424904Y-111021526D01*
X148426634Y-111019184D01*
X148433939Y-110998384D01*
X148470731Y-110893613D01*
X148471519Y-110891369D01*
X148474500Y-110859834D01*
X148474500Y-110361012D01*
X148485923Y-110333435D01*
X148513500Y-110322012D01*
X148890981Y-110322012D01*
X148918558Y-110333435D01*
X148929981Y-110361012D01*
X148918558Y-110388589D01*
X148911792Y-110393995D01*
X148895672Y-110404166D01*
X148885459Y-110410610D01*
X148883622Y-110412690D01*
X148817266Y-110487825D01*
X148790556Y-110518068D01*
X148789379Y-110520575D01*
X148789377Y-110520578D01*
X148766414Y-110569488D01*
X148729626Y-110647843D01*
X148726812Y-110665918D01*
X148712481Y-110757964D01*
X148707570Y-110789503D01*
X148726159Y-110931659D01*
X148783899Y-111062883D01*
X148817687Y-111103079D01*
X148874300Y-111170428D01*
X148876149Y-111172628D01*
X148878464Y-111174169D01*
X148905392Y-111192094D01*
X148922018Y-111216884D01*
X148922754Y-111223096D01*
X148924473Y-111268891D01*
X148924500Y-111270354D01*
X148924500Y-111290932D01*
X148924978Y-111293497D01*
X148925609Y-111299169D01*
X148926060Y-111311177D01*
X148926774Y-111330192D01*
X148928195Y-111333499D01*
X148928196Y-111333504D01*
X148933952Y-111346902D01*
X148936459Y-111355154D01*
X148939130Y-111369495D01*
X148939133Y-111369502D01*
X148939791Y-111373037D01*
X148941680Y-111376102D01*
X148941681Y-111376104D01*
X148956078Y-111399461D01*
X148958712Y-111404530D01*
X148969840Y-111430430D01*
X148970964Y-111433047D01*
X148972711Y-111435173D01*
X148974376Y-111437201D01*
X148974383Y-111437208D01*
X148974978Y-111437933D01*
X148984304Y-111447259D01*
X148989926Y-111454371D01*
X148998532Y-111468332D01*
X149024998Y-111488457D01*
X149028969Y-111491924D01*
X149710077Y-112173033D01*
X149721500Y-112200610D01*
X149721500Y-112909834D01*
X149721587Y-112910753D01*
X149724223Y-112938635D01*
X149724481Y-112941369D01*
X149725269Y-112943613D01*
X149762717Y-113050249D01*
X149769366Y-113069184D01*
X149771096Y-113071526D01*
X149771098Y-113071530D01*
X149832610Y-113154809D01*
X149849850Y-113178150D01*
X149861468Y-113186731D01*
X149956470Y-113256902D01*
X149956474Y-113256904D01*
X149958816Y-113258634D01*
X149961568Y-113259600D01*
X149961569Y-113259601D01*
X150075725Y-113299689D01*
X150086631Y-113303519D01*
X150088996Y-113303743D01*
X150088998Y-113303743D01*
X150107672Y-113305508D01*
X150118166Y-113306500D01*
X151125834Y-113306500D01*
X151136328Y-113305508D01*
X151155002Y-113303743D01*
X151155004Y-113303743D01*
X151157369Y-113303519D01*
X151168275Y-113299689D01*
X151282431Y-113259601D01*
X151282432Y-113259600D01*
X151285184Y-113258634D01*
X151287526Y-113256904D01*
X151287530Y-113256902D01*
X151382532Y-113186731D01*
X151394150Y-113178150D01*
X151408032Y-113159355D01*
X155764001Y-113159355D01*
X155764105Y-113161361D01*
X155774748Y-113263945D01*
X155775643Y-113268086D01*
X155830189Y-113431583D01*
X155832097Y-113435656D01*
X155922724Y-113582107D01*
X155925522Y-113585637D01*
X156047405Y-113707308D01*
X156050938Y-113710099D01*
X156197551Y-113800472D01*
X156201621Y-113802370D01*
X156365217Y-113856633D01*
X156369362Y-113857521D01*
X156470653Y-113867899D01*
X156472627Y-113868000D01*
X156710243Y-113868000D01*
X156715728Y-113865728D01*
X156718000Y-113860243D01*
X156718000Y-113860242D01*
X157226000Y-113860242D01*
X157228272Y-113865727D01*
X157233757Y-113867999D01*
X157471355Y-113867999D01*
X157473361Y-113867895D01*
X157575945Y-113857252D01*
X157580086Y-113856357D01*
X157743583Y-113801811D01*
X157747656Y-113799903D01*
X157894107Y-113709276D01*
X157897637Y-113706478D01*
X158019308Y-113584595D01*
X158022099Y-113581062D01*
X158112472Y-113434449D01*
X158114370Y-113430379D01*
X158168633Y-113266783D01*
X158169521Y-113262638D01*
X158179899Y-113161347D01*
X158180000Y-113159373D01*
X158180000Y-113046757D01*
X158177728Y-113041272D01*
X158172243Y-113039000D01*
X157233757Y-113039000D01*
X157228272Y-113041272D01*
X157226000Y-113046757D01*
X157226000Y-113860242D01*
X156718000Y-113860242D01*
X156718000Y-113046757D01*
X156715728Y-113041272D01*
X156710243Y-113039000D01*
X155771758Y-113039000D01*
X155766273Y-113041272D01*
X155764001Y-113046757D01*
X155764001Y-113159355D01*
X151408032Y-113159355D01*
X151411390Y-113154809D01*
X151472902Y-113071530D01*
X151472904Y-113071526D01*
X151474634Y-113069184D01*
X151481284Y-113050249D01*
X151518731Y-112943613D01*
X151519519Y-112941369D01*
X151519778Y-112938635D01*
X151522413Y-112910753D01*
X151522500Y-112909834D01*
X151522500Y-112152166D01*
X151520710Y-112133226D01*
X151519743Y-112122998D01*
X151519743Y-112122996D01*
X151519519Y-112120631D01*
X151508799Y-112090104D01*
X151475601Y-111995569D01*
X151475600Y-111995568D01*
X151474634Y-111992816D01*
X151472904Y-111990474D01*
X151472902Y-111990470D01*
X151395879Y-111886191D01*
X151394150Y-111883850D01*
X151368888Y-111865191D01*
X151287530Y-111805098D01*
X151287526Y-111805096D01*
X151285184Y-111803366D01*
X151282432Y-111802400D01*
X151282431Y-111802399D01*
X151159613Y-111759269D01*
X151157369Y-111758481D01*
X151155004Y-111758257D01*
X151155002Y-111758257D01*
X151136328Y-111756492D01*
X151125834Y-111755500D01*
X150158641Y-111755500D01*
X150131064Y-111744077D01*
X149579294Y-111192307D01*
X149567871Y-111164730D01*
X149577957Y-111138559D01*
X149604347Y-111109403D01*
X149630517Y-111080492D01*
X149630519Y-111080489D01*
X149632379Y-111078434D01*
X149683012Y-110973927D01*
X149705316Y-110954090D01*
X149735115Y-110955834D01*
X149754907Y-110978010D01*
X149760780Y-110994733D01*
X149769366Y-111019184D01*
X149771096Y-111021526D01*
X149771098Y-111021530D01*
X149832610Y-111104809D01*
X149849850Y-111128150D01*
X149852191Y-111129879D01*
X149956470Y-111206902D01*
X149956474Y-111206904D01*
X149958816Y-111208634D01*
X149961568Y-111209600D01*
X149961569Y-111209601D01*
X150084387Y-111252731D01*
X150086631Y-111253519D01*
X150088996Y-111253743D01*
X150088998Y-111253743D01*
X150107672Y-111255508D01*
X150118166Y-111256500D01*
X151125834Y-111256500D01*
X151136328Y-111255508D01*
X151155002Y-111253743D01*
X151155004Y-111253743D01*
X151157369Y-111253519D01*
X151159613Y-111252731D01*
X151282431Y-111209601D01*
X151282432Y-111209600D01*
X151285184Y-111208634D01*
X151287526Y-111206904D01*
X151287530Y-111206902D01*
X151391809Y-111129879D01*
X151394150Y-111128150D01*
X151411390Y-111104809D01*
X151472902Y-111021530D01*
X151472904Y-111021526D01*
X151474634Y-111019184D01*
X151481939Y-110998384D01*
X151518731Y-110893613D01*
X151519519Y-110891369D01*
X151522500Y-110859834D01*
X151522500Y-110357268D01*
X151533923Y-110329691D01*
X151561500Y-110318268D01*
X155367962Y-110318268D01*
X155395539Y-110329691D01*
X155486702Y-110420854D01*
X155498125Y-110448431D01*
X155498125Y-111155440D01*
X155497707Y-111161137D01*
X155497369Y-111163426D01*
X155496200Y-111166831D01*
X155496335Y-111170428D01*
X155498098Y-111217396D01*
X155498125Y-111218859D01*
X155498125Y-111239437D01*
X155498603Y-111242002D01*
X155499234Y-111247674D01*
X155499578Y-111256838D01*
X155500399Y-111278697D01*
X155501820Y-111282004D01*
X155501821Y-111282009D01*
X155507577Y-111295407D01*
X155510084Y-111303659D01*
X155512755Y-111318000D01*
X155512758Y-111318007D01*
X155513416Y-111321542D01*
X155515305Y-111324607D01*
X155515306Y-111324609D01*
X155529703Y-111347966D01*
X155532337Y-111353035D01*
X155541420Y-111374175D01*
X155544589Y-111381552D01*
X155546336Y-111383678D01*
X155548001Y-111385706D01*
X155548008Y-111385713D01*
X155548603Y-111386438D01*
X155557929Y-111395764D01*
X155563551Y-111402876D01*
X155569950Y-111413256D01*
X155572157Y-111416837D01*
X155594161Y-111433569D01*
X155598623Y-111436962D01*
X155602594Y-111440429D01*
X155944535Y-111782370D01*
X155948266Y-111786692D01*
X155949651Y-111788556D01*
X155951231Y-111791789D01*
X155953871Y-111794238D01*
X155988321Y-111826195D01*
X155989375Y-111827210D01*
X156003933Y-111841768D01*
X156005413Y-111842784D01*
X156006250Y-111843479D01*
X156020158Y-111869891D01*
X156011317Y-111898400D01*
X156008924Y-111901026D01*
X155924692Y-111985405D01*
X155921901Y-111988938D01*
X155831528Y-112135551D01*
X155829630Y-112139621D01*
X155775367Y-112303217D01*
X155774479Y-112307362D01*
X155764101Y-112408653D01*
X155764000Y-112410627D01*
X155764000Y-112523243D01*
X155766272Y-112528728D01*
X155771757Y-112531000D01*
X158172242Y-112531000D01*
X158177727Y-112528728D01*
X158179999Y-112523243D01*
X158179999Y-112410645D01*
X158179895Y-112408639D01*
X158169252Y-112306055D01*
X158168357Y-112301914D01*
X158113811Y-112138417D01*
X158111903Y-112134344D01*
X158021276Y-111987893D01*
X158018481Y-111984367D01*
X158010722Y-111976621D01*
X157999276Y-111949053D01*
X158010675Y-111921466D01*
X158038276Y-111910020D01*
X160612751Y-111910020D01*
X160640328Y-111921443D01*
X160651751Y-111949020D01*
X160640328Y-111976597D01*
X160633562Y-111982003D01*
X160593393Y-112007348D01*
X160569085Y-112022685D01*
X160567248Y-112024765D01*
X160520840Y-112077313D01*
X160474182Y-112130143D01*
X160473005Y-112132650D01*
X160473003Y-112132653D01*
X160463842Y-112152166D01*
X160413252Y-112259918D01*
X160391196Y-112401578D01*
X160409785Y-112543734D01*
X160467525Y-112674958D01*
X160489332Y-112700901D01*
X160550639Y-112773834D01*
X160559775Y-112784703D01*
X160562086Y-112786241D01*
X160562089Y-112786244D01*
X160631711Y-112832588D01*
X160679118Y-112864145D01*
X160718047Y-112876307D01*
X160813310Y-112906069D01*
X160813313Y-112906070D01*
X160815962Y-112906897D01*
X160818742Y-112906948D01*
X160958136Y-112909504D01*
X160984998Y-112920920D01*
X161506448Y-113442370D01*
X161510179Y-113446692D01*
X161511564Y-113448556D01*
X161513144Y-113451789D01*
X161515784Y-113454238D01*
X161550234Y-113486195D01*
X161551288Y-113487210D01*
X161565846Y-113501768D01*
X161567759Y-113503080D01*
X161567997Y-113503244D01*
X161572458Y-113506812D01*
X161592574Y-113525472D01*
X161592577Y-113525474D01*
X161595215Y-113527921D01*
X161612113Y-113534663D01*
X161619714Y-113538721D01*
X161634715Y-113549012D01*
X161654730Y-113553762D01*
X161664911Y-113556178D01*
X161670358Y-113557900D01*
X161685779Y-113564052D01*
X161699191Y-113569403D01*
X161701929Y-113569671D01*
X161701931Y-113569672D01*
X161703685Y-113569844D01*
X161705484Y-113570020D01*
X161718676Y-113570020D01*
X161727682Y-113571074D01*
X161743635Y-113574860D01*
X161747199Y-113574375D01*
X161747200Y-113574375D01*
X161776583Y-113570376D01*
X161781842Y-113570020D01*
X163487826Y-113570020D01*
X163515403Y-113581443D01*
X163517680Y-113583925D01*
X163534662Y-113604127D01*
X163538297Y-113608452D01*
X163540608Y-113609990D01*
X163540611Y-113609993D01*
X163611753Y-113657349D01*
X163657640Y-113687894D01*
X163687860Y-113697335D01*
X163791832Y-113729818D01*
X163791835Y-113729819D01*
X163794484Y-113730646D01*
X163797264Y-113730697D01*
X163841115Y-113731501D01*
X163937826Y-113733274D01*
X163947279Y-113730697D01*
X164073463Y-113696295D01*
X164076144Y-113695564D01*
X164078902Y-113693871D01*
X164195950Y-113622003D01*
X164198318Y-113620549D01*
X164203878Y-113614407D01*
X164262317Y-113549843D01*
X164294527Y-113514258D01*
X164357037Y-113385237D01*
X164357823Y-113380570D01*
X164380572Y-113245350D01*
X164380823Y-113243858D01*
X164380974Y-113231504D01*
X164364456Y-113116161D01*
X164363890Y-113112210D01*
X164371288Y-113083292D01*
X164396967Y-113068075D01*
X164425667Y-113075310D01*
X164514470Y-113140902D01*
X164514474Y-113140904D01*
X164516816Y-113142634D01*
X164519568Y-113143600D01*
X164519569Y-113143601D01*
X164611285Y-113175809D01*
X164644631Y-113187519D01*
X164646996Y-113187743D01*
X164646998Y-113187743D01*
X164665672Y-113189508D01*
X164676166Y-113190500D01*
X165683834Y-113190500D01*
X165694328Y-113189508D01*
X165713002Y-113187743D01*
X165713004Y-113187743D01*
X165715369Y-113187519D01*
X165748715Y-113175809D01*
X165840431Y-113143601D01*
X165840432Y-113143600D01*
X165843184Y-113142634D01*
X165845526Y-113140904D01*
X165845530Y-113140902D01*
X165949809Y-113063879D01*
X165952150Y-113062150D01*
X165969249Y-113039000D01*
X166030902Y-112955530D01*
X166030904Y-112955526D01*
X166032634Y-112953184D01*
X166037615Y-112939002D01*
X166076731Y-112827613D01*
X166077519Y-112825369D01*
X166078065Y-112819599D01*
X166080413Y-112794753D01*
X166080500Y-112793834D01*
X166080500Y-112754500D01*
X166091923Y-112726923D01*
X166119500Y-112715500D01*
X166780500Y-112715500D01*
X166808077Y-112726923D01*
X166819500Y-112754500D01*
X166819500Y-112888834D01*
X166819587Y-112889753D01*
X166821312Y-112907998D01*
X166822481Y-112920369D01*
X166823269Y-112922613D01*
X166864939Y-113041272D01*
X166867366Y-113048184D01*
X166869096Y-113050526D01*
X166869098Y-113050530D01*
X166928291Y-113130669D01*
X166947850Y-113157150D01*
X166953532Y-113161347D01*
X167054470Y-113235902D01*
X167054474Y-113235904D01*
X167056816Y-113237634D01*
X167059568Y-113238600D01*
X167059569Y-113238601D01*
X167131739Y-113263945D01*
X167184631Y-113282519D01*
X167186996Y-113282743D01*
X167186998Y-113282743D01*
X167205672Y-113284508D01*
X167216166Y-113285500D01*
X168223834Y-113285500D01*
X168234328Y-113284508D01*
X168253002Y-113282743D01*
X168253004Y-113282743D01*
X168255369Y-113282519D01*
X168308261Y-113263945D01*
X168380431Y-113238601D01*
X168380432Y-113238600D01*
X168383184Y-113237634D01*
X168385526Y-113235904D01*
X168385530Y-113235902D01*
X168486468Y-113161347D01*
X168492150Y-113157150D01*
X168533381Y-113101329D01*
X168558953Y-113085933D01*
X168564751Y-113085500D01*
X168656944Y-113085500D01*
X168684521Y-113096923D01*
X168686792Y-113099399D01*
X168693252Y-113107083D01*
X168700883Y-113116161D01*
X168703227Y-113118950D01*
X168705538Y-113120488D01*
X168705541Y-113120491D01*
X168768954Y-113162702D01*
X168822570Y-113198392D01*
X168866032Y-113211970D01*
X168956762Y-113240316D01*
X168956765Y-113240317D01*
X168959414Y-113241144D01*
X168962194Y-113241195D01*
X169006045Y-113241999D01*
X169102756Y-113243772D01*
X169107980Y-113242348D01*
X169238393Y-113206793D01*
X169241074Y-113206062D01*
X169249853Y-113200672D01*
X169360880Y-113132501D01*
X169363248Y-113131047D01*
X169368731Y-113124990D01*
X169440743Y-113045431D01*
X169459457Y-113024756D01*
X169501004Y-112939002D01*
X169520755Y-112898237D01*
X169520755Y-112898236D01*
X169521967Y-112895735D01*
X169522635Y-112891768D01*
X169545502Y-112755848D01*
X169545753Y-112754356D01*
X169545904Y-112742002D01*
X169525580Y-112600084D01*
X169466241Y-112469574D01*
X169462390Y-112465104D01*
X169424904Y-112421600D01*
X169372657Y-112360965D01*
X169289958Y-112307362D01*
X169254685Y-112284499D01*
X169254684Y-112284499D01*
X169252352Y-112282987D01*
X169249690Y-112282191D01*
X169249688Y-112282190D01*
X169117659Y-112242705D01*
X169117656Y-112242705D01*
X169114996Y-112241909D01*
X169112215Y-112241892D01*
X169090394Y-112241759D01*
X168971633Y-112241033D01*
X168968968Y-112241795D01*
X168968966Y-112241795D01*
X168858922Y-112273246D01*
X168833786Y-112280430D01*
X168712537Y-112356932D01*
X168710700Y-112359012D01*
X168688732Y-112383886D01*
X168661915Y-112396994D01*
X168633683Y-112387301D01*
X168620500Y-112358069D01*
X168620500Y-112131166D01*
X168617519Y-112099631D01*
X168609682Y-112077313D01*
X168573601Y-111974569D01*
X168573600Y-111974568D01*
X168572634Y-111971816D01*
X168570904Y-111969474D01*
X168570902Y-111969470D01*
X168497351Y-111869891D01*
X168492150Y-111862850D01*
X168475486Y-111850542D01*
X168385530Y-111784098D01*
X168385526Y-111784096D01*
X168383184Y-111782366D01*
X168380432Y-111781400D01*
X168380431Y-111781399D01*
X168257613Y-111738269D01*
X168255369Y-111737481D01*
X168253004Y-111737257D01*
X168253002Y-111737257D01*
X168234328Y-111735492D01*
X168223834Y-111734500D01*
X167216166Y-111734500D01*
X167205672Y-111735492D01*
X167186998Y-111737257D01*
X167186996Y-111737257D01*
X167184631Y-111737481D01*
X167182387Y-111738269D01*
X167059569Y-111781399D01*
X167059568Y-111781400D01*
X167056816Y-111782366D01*
X166974077Y-111843479D01*
X166970417Y-111846182D01*
X166941448Y-111853378D01*
X166915875Y-111837982D01*
X166908328Y-111817344D01*
X166908307Y-111817013D01*
X166908325Y-111815500D01*
X166908111Y-111814009D01*
X166908111Y-111814002D01*
X166889913Y-111686933D01*
X166888001Y-111673582D01*
X166828662Y-111543072D01*
X166826568Y-111540641D01*
X166736893Y-111436569D01*
X166736892Y-111436568D01*
X166735078Y-111434463D01*
X166728856Y-111430430D01*
X166720965Y-111425315D01*
X166704037Y-111400730D01*
X166703178Y-111392589D01*
X166703178Y-111343410D01*
X166703596Y-111337713D01*
X166703935Y-111335417D01*
X166705104Y-111332012D01*
X166704761Y-111322862D01*
X166703205Y-111281432D01*
X166703178Y-111279969D01*
X166703178Y-111259406D01*
X166702700Y-111256838D01*
X166702069Y-111251166D01*
X166701039Y-111223744D01*
X166700904Y-111220146D01*
X166699483Y-111216839D01*
X166699482Y-111216834D01*
X166693726Y-111203436D01*
X166691219Y-111195184D01*
X166688548Y-111180843D01*
X166688545Y-111180836D01*
X166687887Y-111177301D01*
X166686000Y-111174240D01*
X166685999Y-111174237D01*
X166671600Y-111150877D01*
X166668968Y-111145809D01*
X166657803Y-111119824D01*
X166657799Y-111119818D01*
X166656714Y-111117292D01*
X166652701Y-111112406D01*
X166643374Y-111103079D01*
X166637752Y-111095967D01*
X166631037Y-111085073D01*
X166631036Y-111085071D01*
X166629146Y-111082006D01*
X166602679Y-111061880D01*
X166598709Y-111058414D01*
X166537160Y-110996865D01*
X166525737Y-110969288D01*
X166537160Y-110941711D01*
X166554479Y-110931661D01*
X166612369Y-110915878D01*
X166612370Y-110915878D01*
X166615050Y-110915147D01*
X166634917Y-110902949D01*
X166734856Y-110841586D01*
X166737224Y-110840132D01*
X166739088Y-110838073D01*
X166752422Y-110823342D01*
X166779397Y-110810562D01*
X166807508Y-110820600D01*
X166820163Y-110845843D01*
X166822481Y-110870369D01*
X166823269Y-110872613D01*
X166858848Y-110973927D01*
X166867366Y-110998184D01*
X166869096Y-111000526D01*
X166869098Y-111000530D01*
X166922356Y-111072634D01*
X166947850Y-111107150D01*
X166950191Y-111108879D01*
X167054470Y-111185902D01*
X167054474Y-111185904D01*
X167056816Y-111187634D01*
X167059568Y-111188600D01*
X167059569Y-111188601D01*
X167156969Y-111222805D01*
X167184631Y-111232519D01*
X167186996Y-111232743D01*
X167186998Y-111232743D01*
X167205672Y-111234508D01*
X167216166Y-111235500D01*
X168223834Y-111235500D01*
X168234328Y-111234508D01*
X168253002Y-111232743D01*
X168253004Y-111232743D01*
X168255369Y-111232519D01*
X168283031Y-111222805D01*
X168380431Y-111188601D01*
X168380432Y-111188600D01*
X168383184Y-111187634D01*
X168385526Y-111185904D01*
X168385530Y-111185902D01*
X168489809Y-111108879D01*
X168492150Y-111107150D01*
X168517644Y-111072634D01*
X168570902Y-111000530D01*
X168570904Y-111000526D01*
X168572634Y-110998184D01*
X168581153Y-110973927D01*
X168616731Y-110872613D01*
X168617519Y-110870369D01*
X168620500Y-110838834D01*
X168620500Y-110471124D01*
X168631923Y-110443547D01*
X168659500Y-110432124D01*
X168681111Y-110438659D01*
X168686875Y-110442496D01*
X168711426Y-110450166D01*
X168821067Y-110484420D01*
X168821070Y-110484421D01*
X168823719Y-110485248D01*
X168826499Y-110485299D01*
X168870350Y-110486103D01*
X168967061Y-110487876D01*
X168976514Y-110485299D01*
X169102698Y-110450897D01*
X169105379Y-110450166D01*
X169123171Y-110439242D01*
X169225185Y-110376605D01*
X169227553Y-110375151D01*
X169244738Y-110356166D01*
X169271033Y-110327115D01*
X169299947Y-110314287D01*
X170368832Y-110314287D01*
X170396409Y-110325710D01*
X170407832Y-110353287D01*
X170405988Y-110363068D01*
X170406521Y-110363205D01*
X170405936Y-110365484D01*
X170405082Y-110367674D01*
X170404775Y-110370006D01*
X170391463Y-110471124D01*
X170385321Y-110517774D01*
X170401934Y-110668255D01*
X170434635Y-110757613D01*
X170434763Y-110757964D01*
X170433513Y-110787787D01*
X170421061Y-110802919D01*
X170389298Y-110825996D01*
X170386273Y-110828719D01*
X170257776Y-110971431D01*
X170255389Y-110974717D01*
X170159369Y-111141025D01*
X170157715Y-111144742D01*
X170119294Y-111262993D01*
X170119760Y-111268913D01*
X170121467Y-111270372D01*
X171230380Y-111270372D01*
X171257957Y-111281795D01*
X171269380Y-111309372D01*
X171269380Y-111739372D01*
X171257957Y-111766949D01*
X171230380Y-111778372D01*
X170124653Y-111778372D01*
X170119168Y-111780644D01*
X170118309Y-111782719D01*
X170157715Y-111904002D01*
X170159369Y-111907719D01*
X170255389Y-112074027D01*
X170257776Y-112077313D01*
X170386275Y-112220027D01*
X170389299Y-112222750D01*
X170421287Y-112245991D01*
X170436883Y-112271441D01*
X170434699Y-112291709D01*
X170405936Y-112365483D01*
X170405082Y-112367674D01*
X170404775Y-112370006D01*
X170388625Y-112492681D01*
X170385321Y-112517774D01*
X170401934Y-112668255D01*
X170405326Y-112677524D01*
X170404076Y-112707346D01*
X170396278Y-112718503D01*
X170018703Y-113096078D01*
X169991126Y-113107501D01*
X169926589Y-113107501D01*
X169920892Y-113107083D01*
X169918603Y-113106745D01*
X169915198Y-113105576D01*
X169911601Y-113105711D01*
X169864633Y-113107474D01*
X169863170Y-113107501D01*
X169842592Y-113107501D01*
X169840021Y-113107980D01*
X169834355Y-113108610D01*
X169815732Y-113109309D01*
X169803332Y-113109775D01*
X169800025Y-113111196D01*
X169800020Y-113111197D01*
X169786622Y-113116953D01*
X169778370Y-113119460D01*
X169764029Y-113122131D01*
X169764022Y-113122134D01*
X169760487Y-113122792D01*
X169757422Y-113124681D01*
X169757420Y-113124682D01*
X169734063Y-113139079D01*
X169728994Y-113141713D01*
X169703006Y-113152878D01*
X169703004Y-113152879D01*
X169700477Y-113153965D01*
X169697541Y-113156377D01*
X169696323Y-113157377D01*
X169696316Y-113157384D01*
X169695591Y-113157979D01*
X169686265Y-113167305D01*
X169679153Y-113172927D01*
X169668259Y-113179642D01*
X169668257Y-113179643D01*
X169665192Y-113181533D01*
X169649422Y-113202272D01*
X169645067Y-113207999D01*
X169641600Y-113211970D01*
X168912532Y-113941038D01*
X168884955Y-113952461D01*
X161418857Y-113952461D01*
X161391280Y-113941038D01*
X161294668Y-113844426D01*
X161283245Y-113816849D01*
X161283786Y-113810378D01*
X161285134Y-113802370D01*
X161290268Y-113771855D01*
X161290419Y-113759501D01*
X161270095Y-113617583D01*
X161210756Y-113487073D01*
X161204301Y-113479581D01*
X161165412Y-113434449D01*
X161117172Y-113378464D01*
X161057020Y-113339475D01*
X160999200Y-113301998D01*
X160999199Y-113301998D01*
X160996867Y-113300486D01*
X160994205Y-113299690D01*
X160994203Y-113299689D01*
X160862174Y-113260204D01*
X160862171Y-113260204D01*
X160859511Y-113259408D01*
X160856730Y-113259391D01*
X160834909Y-113259258D01*
X160716148Y-113258532D01*
X160713483Y-113259294D01*
X160713481Y-113259294D01*
X160622093Y-113285413D01*
X160578301Y-113297929D01*
X160457052Y-113374431D01*
X160362149Y-113481889D01*
X160360972Y-113484396D01*
X160360970Y-113484399D01*
X160340537Y-113527921D01*
X160301219Y-113611664D01*
X160279163Y-113753324D01*
X160279523Y-113756077D01*
X160279523Y-113756078D01*
X160286711Y-113811051D01*
X160278960Y-113839876D01*
X160275617Y-113843684D01*
X160177593Y-113941709D01*
X160150016Y-113953132D01*
X140626252Y-113953132D01*
X140598675Y-113941709D01*
X139875220Y-113218254D01*
X139863797Y-113190677D01*
X139875220Y-113163100D01*
X139902797Y-113151677D01*
X140651942Y-113151677D01*
X140653810Y-113151305D01*
X140653814Y-113151305D01*
X140706661Y-113140793D01*
X140706662Y-113140792D01*
X140710425Y-113140044D01*
X140776746Y-113095729D01*
X140821061Y-113029408D01*
X140821810Y-113025644D01*
X140832322Y-112972797D01*
X140832322Y-112972793D01*
X140832694Y-112970925D01*
X140832694Y-112081429D01*
X140832235Y-112079118D01*
X140821810Y-112026710D01*
X140821809Y-112026709D01*
X140821061Y-112022946D01*
X140776746Y-111956625D01*
X140736935Y-111930024D01*
X140720353Y-111905206D01*
X140726933Y-111874840D01*
X140749468Y-111843479D01*
X140759350Y-111829727D01*
X140764716Y-111816380D01*
X140814943Y-111691434D01*
X140814943Y-111691433D01*
X140815818Y-111689257D01*
X140816225Y-111686399D01*
X140836970Y-111540641D01*
X140836971Y-111540634D01*
X140837150Y-111539373D01*
X140837288Y-111526177D01*
X140832724Y-111488457D01*
X140824320Y-111419018D01*
X140820082Y-111383994D01*
X140828110Y-111355246D01*
X140831223Y-111351733D01*
X141610725Y-110572231D01*
X142371096Y-110572231D01*
X142389685Y-110714387D01*
X142447425Y-110845611D01*
X142487775Y-110893613D01*
X142535902Y-110950867D01*
X142539675Y-110955356D01*
X142541990Y-110956897D01*
X142557741Y-110967382D01*
X142574367Y-110992172D01*
X142575103Y-110998380D01*
X142575780Y-111016431D01*
X142576178Y-111027027D01*
X142576205Y-111028490D01*
X142576205Y-111049068D01*
X142576683Y-111051633D01*
X142577314Y-111057305D01*
X142577720Y-111068125D01*
X142578479Y-111088328D01*
X142579900Y-111091635D01*
X142579901Y-111091640D01*
X142585657Y-111105038D01*
X142588164Y-111113290D01*
X142590835Y-111127631D01*
X142590838Y-111127638D01*
X142591496Y-111131173D01*
X142593385Y-111134238D01*
X142593386Y-111134240D01*
X142607783Y-111157597D01*
X142610417Y-111162666D01*
X142621560Y-111188601D01*
X142622669Y-111191183D01*
X142624416Y-111193309D01*
X142626081Y-111195337D01*
X142626088Y-111195344D01*
X142626683Y-111196069D01*
X142636009Y-111205395D01*
X142641631Y-111212507D01*
X142645547Y-111218859D01*
X142650237Y-111226468D01*
X142674370Y-111244819D01*
X142676703Y-111246593D01*
X142680674Y-111250060D01*
X143614077Y-112183463D01*
X143625500Y-112211040D01*
X143625500Y-112909834D01*
X143625587Y-112910753D01*
X143628223Y-112938635D01*
X143628481Y-112941369D01*
X143629269Y-112943613D01*
X143666717Y-113050249D01*
X143673366Y-113069184D01*
X143675096Y-113071526D01*
X143675098Y-113071530D01*
X143736610Y-113154809D01*
X143753850Y-113178150D01*
X143765468Y-113186731D01*
X143860470Y-113256902D01*
X143860474Y-113256904D01*
X143862816Y-113258634D01*
X143865568Y-113259600D01*
X143865569Y-113259601D01*
X143979725Y-113299689D01*
X143990631Y-113303519D01*
X143992996Y-113303743D01*
X143992998Y-113303743D01*
X144011672Y-113305508D01*
X144022166Y-113306500D01*
X145029834Y-113306500D01*
X145040328Y-113305508D01*
X145059002Y-113303743D01*
X145059004Y-113303743D01*
X145061369Y-113303519D01*
X145072275Y-113299689D01*
X145186431Y-113259601D01*
X145186432Y-113259600D01*
X145189184Y-113258634D01*
X145191526Y-113256904D01*
X145191530Y-113256902D01*
X145286532Y-113186731D01*
X145298150Y-113178150D01*
X145315390Y-113154809D01*
X145376902Y-113071530D01*
X145376904Y-113071526D01*
X145378634Y-113069184D01*
X145385284Y-113050249D01*
X145422731Y-112943613D01*
X145423519Y-112941369D01*
X145423778Y-112938635D01*
X145426413Y-112910753D01*
X145426500Y-112909834D01*
X145426500Y-112908772D01*
X145426507Y-112908754D01*
X145426543Y-112907998D01*
X145426815Y-112908011D01*
X145437923Y-112881195D01*
X145465500Y-112869772D01*
X145487111Y-112876307D01*
X145512648Y-112893306D01*
X145537199Y-112900976D01*
X145646840Y-112935230D01*
X145646843Y-112935231D01*
X145649492Y-112936058D01*
X145652272Y-112936109D01*
X145696123Y-112936913D01*
X145792834Y-112938686D01*
X145802287Y-112936109D01*
X145928471Y-112901707D01*
X145931152Y-112900976D01*
X145949431Y-112889753D01*
X146034916Y-112837265D01*
X146055322Y-112831500D01*
X146634500Y-112831500D01*
X146662077Y-112842923D01*
X146673500Y-112870500D01*
X146673500Y-112909834D01*
X146673587Y-112910753D01*
X146676223Y-112938635D01*
X146676481Y-112941369D01*
X146677269Y-112943613D01*
X146714717Y-113050249D01*
X146721366Y-113069184D01*
X146723096Y-113071526D01*
X146723098Y-113071530D01*
X146784610Y-113154809D01*
X146801850Y-113178150D01*
X146813468Y-113186731D01*
X146908470Y-113256902D01*
X146908474Y-113256904D01*
X146910816Y-113258634D01*
X146913568Y-113259600D01*
X146913569Y-113259601D01*
X147027725Y-113299689D01*
X147038631Y-113303519D01*
X147040996Y-113303743D01*
X147040998Y-113303743D01*
X147059672Y-113305508D01*
X147070166Y-113306500D01*
X148077834Y-113306500D01*
X148088328Y-113305508D01*
X148107002Y-113303743D01*
X148107004Y-113303743D01*
X148109369Y-113303519D01*
X148120275Y-113299689D01*
X148234431Y-113259601D01*
X148234432Y-113259600D01*
X148237184Y-113258634D01*
X148239526Y-113256904D01*
X148239530Y-113256902D01*
X148334532Y-113186731D01*
X148346150Y-113178150D01*
X148363390Y-113154809D01*
X148424902Y-113071530D01*
X148424904Y-113071526D01*
X148426634Y-113069184D01*
X148433284Y-113050249D01*
X148470731Y-112943613D01*
X148471519Y-112941369D01*
X148471778Y-112938635D01*
X148474413Y-112910753D01*
X148474500Y-112909834D01*
X148474500Y-112152166D01*
X148472710Y-112133226D01*
X148471743Y-112122998D01*
X148471743Y-112122996D01*
X148471519Y-112120631D01*
X148460799Y-112090104D01*
X148427601Y-111995569D01*
X148427600Y-111995568D01*
X148426634Y-111992816D01*
X148424904Y-111990474D01*
X148424902Y-111990470D01*
X148347879Y-111886191D01*
X148346150Y-111883850D01*
X148320888Y-111865191D01*
X148239530Y-111805098D01*
X148239526Y-111805096D01*
X148237184Y-111803366D01*
X148234432Y-111802400D01*
X148234431Y-111802399D01*
X148111613Y-111759269D01*
X148109369Y-111758481D01*
X148107004Y-111758257D01*
X148107002Y-111758257D01*
X148088328Y-111756492D01*
X148077834Y-111755500D01*
X147070166Y-111755500D01*
X147059672Y-111756492D01*
X147040998Y-111758257D01*
X147040996Y-111758257D01*
X147038631Y-111758481D01*
X147036387Y-111759269D01*
X146913569Y-111802399D01*
X146913568Y-111802400D01*
X146910816Y-111803366D01*
X146908474Y-111805096D01*
X146908470Y-111805098D01*
X146827112Y-111865191D01*
X146801850Y-111883850D01*
X146800121Y-111886191D01*
X146723098Y-111990470D01*
X146723096Y-111990474D01*
X146721366Y-111992816D01*
X146720400Y-111995568D01*
X146720399Y-111995569D01*
X146687201Y-112090104D01*
X146676481Y-112120631D01*
X146676257Y-112122996D01*
X146676257Y-112122998D01*
X146675290Y-112133226D01*
X146673500Y-112152166D01*
X146673500Y-112191500D01*
X146662077Y-112219077D01*
X146634500Y-112230500D01*
X146211443Y-112230500D01*
X146183866Y-112219077D01*
X146175940Y-112207642D01*
X146157467Y-112167012D01*
X146157466Y-112167010D01*
X146156319Y-112164488D01*
X146062735Y-112055879D01*
X145942430Y-111977901D01*
X145939768Y-111977105D01*
X145939766Y-111977104D01*
X145807737Y-111937619D01*
X145807734Y-111937619D01*
X145805074Y-111936823D01*
X145802293Y-111936806D01*
X145780472Y-111936673D01*
X145661711Y-111935947D01*
X145659046Y-111936709D01*
X145659044Y-111936709D01*
X145526537Y-111974580D01*
X145523864Y-111975344D01*
X145491809Y-111995569D01*
X145441345Y-112027409D01*
X145411927Y-112032464D01*
X145387551Y-112015237D01*
X145383737Y-112007348D01*
X145379601Y-111995569D01*
X145379600Y-111995568D01*
X145378634Y-111992816D01*
X145376904Y-111990474D01*
X145376902Y-111990470D01*
X145299879Y-111886191D01*
X145298150Y-111883850D01*
X145272888Y-111865191D01*
X145191530Y-111805098D01*
X145191526Y-111805096D01*
X145189184Y-111803366D01*
X145186432Y-111802400D01*
X145186431Y-111802399D01*
X145063613Y-111759269D01*
X145061369Y-111758481D01*
X145059004Y-111758257D01*
X145059002Y-111758257D01*
X145040328Y-111756492D01*
X145029834Y-111755500D01*
X144052211Y-111755500D01*
X144024634Y-111744077D01*
X143647710Y-111367153D01*
X143248888Y-110968332D01*
X143237465Y-110940755D01*
X143247551Y-110914583D01*
X143248358Y-110913692D01*
X143295905Y-110861162D01*
X143358415Y-110732141D01*
X143361866Y-110711633D01*
X143381950Y-110592254D01*
X143382201Y-110590762D01*
X143382352Y-110578408D01*
X143362028Y-110436490D01*
X143302689Y-110305980D01*
X143275798Y-110274771D01*
X143241074Y-110234473D01*
X143209105Y-110197371D01*
X143128722Y-110145269D01*
X143091133Y-110120905D01*
X143091132Y-110120905D01*
X143088800Y-110119393D01*
X143086138Y-110118597D01*
X143086136Y-110118596D01*
X142954107Y-110079111D01*
X142954104Y-110079111D01*
X142951444Y-110078315D01*
X142948663Y-110078298D01*
X142926842Y-110078165D01*
X142808081Y-110077439D01*
X142805416Y-110078201D01*
X142805414Y-110078201D01*
X142695944Y-110109488D01*
X142670234Y-110116836D01*
X142548985Y-110193338D01*
X142547148Y-110195418D01*
X142508027Y-110239715D01*
X142454082Y-110300796D01*
X142452905Y-110303303D01*
X142452903Y-110303306D01*
X142427652Y-110357090D01*
X142393152Y-110430571D01*
X142371096Y-110572231D01*
X141610725Y-110572231D01*
X142337627Y-109845329D01*
X142365204Y-109833906D01*
X143360961Y-109833906D01*
X143388538Y-109845329D01*
G37*
G04 #@! TD.AperFunction*
G04 #@! TA.AperFunction,Conductor*
G36*
X159814850Y-109396158D02*
G01*
X159840900Y-109398437D01*
X159867377Y-109412220D01*
X159876037Y-109443288D01*
X159861859Y-109534349D01*
X159880448Y-109676505D01*
X159938188Y-109807729D01*
X159939977Y-109809857D01*
X160023296Y-109908977D01*
X160030438Y-109917474D01*
X160032749Y-109919012D01*
X160032752Y-109919015D01*
X160093572Y-109959500D01*
X160149781Y-109996916D01*
X160188774Y-110009098D01*
X160283973Y-110038840D01*
X160283976Y-110038841D01*
X160286625Y-110039668D01*
X160289405Y-110039719D01*
X160333256Y-110040523D01*
X160429967Y-110042296D01*
X160439420Y-110039719D01*
X160565604Y-110005317D01*
X160568285Y-110004586D01*
X160577310Y-109999045D01*
X160688091Y-109931025D01*
X160690459Y-109929571D01*
X160697479Y-109921816D01*
X160780980Y-109829564D01*
X160786668Y-109823280D01*
X160801727Y-109792199D01*
X160824030Y-109772363D01*
X160836824Y-109770205D01*
X161982692Y-109770205D01*
X162010269Y-109781628D01*
X162021692Y-109809205D01*
X162019489Y-109822127D01*
X161991773Y-109901051D01*
X161979981Y-109934631D01*
X161979757Y-109936996D01*
X161979757Y-109936998D01*
X161978090Y-109954631D01*
X161977000Y-109966166D01*
X161977000Y-110723834D01*
X161979981Y-110755369D01*
X161980769Y-110757613D01*
X162019535Y-110868002D01*
X162024866Y-110883184D01*
X162026596Y-110885526D01*
X162026598Y-110885530D01*
X162087056Y-110967382D01*
X162105350Y-110992150D01*
X162107691Y-110993879D01*
X162211970Y-111070902D01*
X162211974Y-111070904D01*
X162214316Y-111072634D01*
X162217068Y-111073600D01*
X162217069Y-111073601D01*
X162338970Y-111116409D01*
X162342131Y-111117519D01*
X162344496Y-111117743D01*
X162344498Y-111117743D01*
X162363172Y-111119508D01*
X162373666Y-111120500D01*
X163381334Y-111120500D01*
X163391828Y-111119508D01*
X163410502Y-111117743D01*
X163410504Y-111117743D01*
X163412869Y-111117519D01*
X163416030Y-111116409D01*
X163537931Y-111073601D01*
X163537932Y-111073600D01*
X163540684Y-111072634D01*
X163543029Y-111070902D01*
X163543033Y-111070900D01*
X163555287Y-111061849D01*
X163584256Y-111054653D01*
X163608310Y-111068125D01*
X163610645Y-111070902D01*
X163642691Y-111109025D01*
X163644797Y-111111531D01*
X163647108Y-111113069D01*
X163647111Y-111113072D01*
X163710760Y-111155440D01*
X163764140Y-111190973D01*
X163788691Y-111198643D01*
X163898332Y-111232897D01*
X163898335Y-111232898D01*
X163900984Y-111233725D01*
X163903764Y-111233776D01*
X163947615Y-111234580D01*
X164044326Y-111236353D01*
X164053779Y-111233776D01*
X164179963Y-111199374D01*
X164182644Y-111198643D01*
X164185739Y-111196743D01*
X164302450Y-111125082D01*
X164304818Y-111123628D01*
X164307650Y-111120500D01*
X164364850Y-111057305D01*
X164382885Y-111037380D01*
X164409860Y-111024600D01*
X164434969Y-111032181D01*
X164516816Y-111092634D01*
X164519568Y-111093600D01*
X164519569Y-111093601D01*
X164605075Y-111123628D01*
X164644631Y-111137519D01*
X164646996Y-111137743D01*
X164646998Y-111137743D01*
X164665672Y-111139508D01*
X164676166Y-111140500D01*
X165683834Y-111140500D01*
X165694328Y-111139508D01*
X165713002Y-111137743D01*
X165713004Y-111137743D01*
X165715369Y-111137519D01*
X165717613Y-111136731D01*
X165775483Y-111116409D01*
X165805287Y-111118049D01*
X165815982Y-111125629D01*
X166070529Y-111380176D01*
X166081952Y-111407753D01*
X166072184Y-111433569D01*
X165981894Y-111535805D01*
X165981892Y-111535808D01*
X165980055Y-111537888D01*
X165978878Y-111540395D01*
X165978876Y-111540398D01*
X165977621Y-111543072D01*
X165919125Y-111667663D01*
X165918698Y-111670403D01*
X165918696Y-111670411D01*
X165918447Y-111672012D01*
X165917965Y-111672803D01*
X165917885Y-111673065D01*
X165917818Y-111673044D01*
X165902916Y-111697502D01*
X165873909Y-111704544D01*
X165856740Y-111697379D01*
X165848692Y-111691434D01*
X165843184Y-111687366D01*
X165840432Y-111686400D01*
X165840431Y-111686399D01*
X165717613Y-111643269D01*
X165715369Y-111642481D01*
X165713004Y-111642257D01*
X165713002Y-111642257D01*
X165694328Y-111640492D01*
X165683834Y-111639500D01*
X164676166Y-111639500D01*
X164665672Y-111640492D01*
X164646998Y-111642257D01*
X164646996Y-111642257D01*
X164644631Y-111642481D01*
X164642387Y-111643269D01*
X164519569Y-111686399D01*
X164519568Y-111686400D01*
X164516816Y-111687366D01*
X164514474Y-111689096D01*
X164514470Y-111689098D01*
X164434928Y-111747850D01*
X164407850Y-111767850D01*
X164406121Y-111770191D01*
X164329098Y-111874470D01*
X164329096Y-111874474D01*
X164327366Y-111876816D01*
X164326400Y-111879568D01*
X164326399Y-111879569D01*
X164294005Y-111971816D01*
X164282481Y-112004631D01*
X164282257Y-112006996D01*
X164282257Y-112006998D01*
X164280920Y-112021141D01*
X164279500Y-112036166D01*
X164279500Y-112055500D01*
X164268077Y-112083077D01*
X164240500Y-112094500D01*
X163817000Y-112094500D01*
X163789423Y-112083077D01*
X163778000Y-112055500D01*
X163778000Y-112016166D01*
X163776777Y-112003233D01*
X163775243Y-111986998D01*
X163775243Y-111986996D01*
X163775019Y-111984631D01*
X163762525Y-111949053D01*
X163731101Y-111859569D01*
X163731100Y-111859568D01*
X163730134Y-111856816D01*
X163728404Y-111854474D01*
X163728402Y-111854470D01*
X163651379Y-111750191D01*
X163649650Y-111747850D01*
X163581485Y-111697502D01*
X163543030Y-111669098D01*
X163543026Y-111669096D01*
X163540684Y-111667366D01*
X163537932Y-111666400D01*
X163537931Y-111666399D01*
X163415113Y-111623269D01*
X163412869Y-111622481D01*
X163410504Y-111622257D01*
X163410502Y-111622257D01*
X163391828Y-111620492D01*
X163381334Y-111619500D01*
X162373666Y-111619500D01*
X162363172Y-111620492D01*
X162344498Y-111622257D01*
X162344496Y-111622257D01*
X162342131Y-111622481D01*
X162339887Y-111623269D01*
X162217069Y-111666399D01*
X162217068Y-111666400D01*
X162214316Y-111667366D01*
X162211974Y-111669096D01*
X162211970Y-111669098D01*
X162173515Y-111697502D01*
X162105350Y-111747850D01*
X162065341Y-111802018D01*
X162039769Y-111817413D01*
X162010800Y-111810217D01*
X162006394Y-111806423D01*
X161636641Y-111436670D01*
X161632910Y-111432348D01*
X161631525Y-111430484D01*
X161629945Y-111427251D01*
X161592855Y-111392845D01*
X161591801Y-111391830D01*
X161577243Y-111377272D01*
X161575092Y-111375796D01*
X161570631Y-111372228D01*
X161550515Y-111353568D01*
X161550512Y-111353566D01*
X161547874Y-111351119D01*
X161530976Y-111344377D01*
X161523375Y-111340319D01*
X161508374Y-111330028D01*
X161488359Y-111325278D01*
X161478178Y-111322862D01*
X161472731Y-111321140D01*
X161457310Y-111314988D01*
X161443898Y-111309637D01*
X161441160Y-111309369D01*
X161441158Y-111309368D01*
X161439404Y-111309196D01*
X161437605Y-111309020D01*
X161424413Y-111309020D01*
X161415408Y-111307966D01*
X161402956Y-111305011D01*
X161399454Y-111304180D01*
X161395890Y-111304665D01*
X161395889Y-111304665D01*
X161366506Y-111308664D01*
X161361247Y-111309020D01*
X157867080Y-111309020D01*
X157839503Y-111297597D01*
X157828080Y-111270020D01*
X157830283Y-111257098D01*
X157868731Y-111147613D01*
X157869519Y-111145369D01*
X157869988Y-111140413D01*
X157872010Y-111119020D01*
X157872500Y-111113834D01*
X157872500Y-110356166D01*
X157870125Y-110331037D01*
X157869743Y-110326998D01*
X157869743Y-110326996D01*
X157869519Y-110324631D01*
X157868599Y-110322012D01*
X157825601Y-110199569D01*
X157825600Y-110199568D01*
X157824634Y-110196816D01*
X157822904Y-110194474D01*
X157822902Y-110194470D01*
X157745879Y-110090191D01*
X157744150Y-110087850D01*
X157689368Y-110047387D01*
X157637530Y-110009098D01*
X157637526Y-110009096D01*
X157635184Y-110007366D01*
X157632432Y-110006400D01*
X157632431Y-110006399D01*
X157509613Y-109963269D01*
X157507369Y-109962481D01*
X157505004Y-109962257D01*
X157505002Y-109962257D01*
X157486328Y-109960492D01*
X157475834Y-109959500D01*
X156541469Y-109959500D01*
X156513892Y-109948077D01*
X156481618Y-109915803D01*
X156470195Y-109888226D01*
X156480281Y-109862054D01*
X156481270Y-109860962D01*
X156539192Y-109796970D01*
X156587492Y-109697278D01*
X156600490Y-109670451D01*
X156600490Y-109670450D01*
X156601702Y-109667949D01*
X156603822Y-109655353D01*
X156625237Y-109528062D01*
X156625488Y-109526570D01*
X156625639Y-109514216D01*
X156622727Y-109493883D01*
X156630125Y-109464966D01*
X156633756Y-109460778D01*
X156687101Y-109407433D01*
X156714678Y-109396010D01*
X159811452Y-109396010D01*
X159814850Y-109396158D01*
G37*
G04 #@! TD.AperFunction*
M02*
