G04 #@! TF.GenerationSoftware,KiCad,Pcbnew,(6.0.4)*
G04 #@! TF.CreationDate,2022-04-13T12:38:05-04:00*
G04 #@! TF.ProjectId,temp_proto_v2,74656d70-5f70-4726-9f74-6f5f76322e6b,rev?*
G04 #@! TF.SameCoordinates,Original*
G04 #@! TF.FileFunction,Legend,Bot*
G04 #@! TF.FilePolarity,Positive*
%FSLAX46Y46*%
G04 Gerber Fmt 4.6, Leading zero omitted, Abs format (unit mm)*
G04 Created by KiCad (PCBNEW (6.0.4)) date 2022-04-13 12:38:05*
%MOMM*%
%LPD*%
G01*
G04 APERTURE LIST*
G04 Aperture macros list*
%AMRoundRect*
0 Rectangle with rounded corners*
0 $1 Rounding radius*
0 $2 $3 $4 $5 $6 $7 $8 $9 X,Y pos of 4 corners*
0 Add a 4 corners polygon primitive as box body*
4,1,4,$2,$3,$4,$5,$6,$7,$8,$9,$2,$3,0*
0 Add four circle primitives for the rounded corners*
1,1,$1+$1,$2,$3*
1,1,$1+$1,$4,$5*
1,1,$1+$1,$6,$7*
1,1,$1+$1,$8,$9*
0 Add four rect primitives between the rounded corners*
20,1,$1+$1,$2,$3,$4,$5,0*
20,1,$1+$1,$4,$5,$6,$7,0*
20,1,$1+$1,$6,$7,$8,$9,0*
20,1,$1+$1,$8,$9,$2,$3,0*%
G04 Aperture macros list end*
%ADD10C,0.150000*%
%ADD11C,0.120000*%
%ADD12RoundRect,0.050000X0.425000X0.425000X-0.425000X0.425000X-0.425000X-0.425000X0.425000X-0.425000X0*%
%ADD13O,0.950000X0.950000*%
%ADD14RoundRect,0.300000X-0.450000X0.325000X-0.450000X-0.325000X0.450000X-0.325000X0.450000X0.325000X0*%
%ADD15RoundRect,0.300000X0.450000X-0.325000X0.450000X0.325000X-0.450000X0.325000X-0.450000X-0.325000X0*%
G04 APERTURE END LIST*
D10*
X143328380Y-111339333D02*
X142852190Y-111006000D01*
X143328380Y-110767904D02*
X142328380Y-110767904D01*
X142328380Y-111148857D01*
X142376000Y-111244095D01*
X142423619Y-111291714D01*
X142518857Y-111339333D01*
X142661714Y-111339333D01*
X142756952Y-111291714D01*
X142804571Y-111244095D01*
X142852190Y-111148857D01*
X142852190Y-110767904D01*
X143328380Y-112291714D02*
X143328380Y-111720285D01*
X143328380Y-112006000D02*
X142328380Y-112006000D01*
X142471238Y-111910761D01*
X142566476Y-111815523D01*
X142614095Y-111720285D01*
X146376380Y-111339333D02*
X145900190Y-111006000D01*
X146376380Y-110767904D02*
X145376380Y-110767904D01*
X145376380Y-111148857D01*
X145424000Y-111244095D01*
X145471619Y-111291714D01*
X145566857Y-111339333D01*
X145709714Y-111339333D01*
X145804952Y-111291714D01*
X145852571Y-111244095D01*
X145900190Y-111148857D01*
X145900190Y-110767904D01*
X145471619Y-111720285D02*
X145424000Y-111767904D01*
X145376380Y-111863142D01*
X145376380Y-112101238D01*
X145424000Y-112196476D01*
X145471619Y-112244095D01*
X145566857Y-112291714D01*
X145662095Y-112291714D01*
X145804952Y-112244095D01*
X146376380Y-111672666D01*
X146376380Y-112291714D01*
X149424380Y-111339333D02*
X148948190Y-111006000D01*
X149424380Y-110767904D02*
X148424380Y-110767904D01*
X148424380Y-111148857D01*
X148472000Y-111244095D01*
X148519619Y-111291714D01*
X148614857Y-111339333D01*
X148757714Y-111339333D01*
X148852952Y-111291714D01*
X148900571Y-111244095D01*
X148948190Y-111148857D01*
X148948190Y-110767904D01*
X148424380Y-111672666D02*
X148424380Y-112291714D01*
X148805333Y-111958380D01*
X148805333Y-112101238D01*
X148852952Y-112196476D01*
X148900571Y-112244095D01*
X148995809Y-112291714D01*
X149233904Y-112291714D01*
X149329142Y-112244095D01*
X149376761Y-112196476D01*
X149424380Y-112101238D01*
X149424380Y-111815523D01*
X149376761Y-111720285D01*
X149329142Y-111672666D01*
X164979880Y-111203333D02*
X164503690Y-110870000D01*
X164979880Y-110631904D02*
X163979880Y-110631904D01*
X163979880Y-111012857D01*
X164027500Y-111108095D01*
X164075119Y-111155714D01*
X164170357Y-111203333D01*
X164313214Y-111203333D01*
X164408452Y-111155714D01*
X164456071Y-111108095D01*
X164503690Y-111012857D01*
X164503690Y-110631904D01*
X164313214Y-112060476D02*
X164979880Y-112060476D01*
X163932261Y-111822380D02*
X164646547Y-111584285D01*
X164646547Y-112203333D01*
X167282380Y-111223333D02*
X166806190Y-110890000D01*
X167282380Y-110651904D02*
X166282380Y-110651904D01*
X166282380Y-111032857D01*
X166330000Y-111128095D01*
X166377619Y-111175714D01*
X166472857Y-111223333D01*
X166615714Y-111223333D01*
X166710952Y-111175714D01*
X166758571Y-111128095D01*
X166806190Y-111032857D01*
X166806190Y-110651904D01*
X166282380Y-112128095D02*
X166282380Y-111651904D01*
X166758571Y-111604285D01*
X166710952Y-111651904D01*
X166663333Y-111747142D01*
X166663333Y-111985238D01*
X166710952Y-112080476D01*
X166758571Y-112128095D01*
X166853809Y-112175714D01*
X167091904Y-112175714D01*
X167187142Y-112128095D01*
X167234761Y-112080476D01*
X167282380Y-111985238D01*
X167282380Y-111747142D01*
X167234761Y-111651904D01*
X167187142Y-111604285D01*
X169822380Y-111318333D02*
X169346190Y-110985000D01*
X169822380Y-110746904D02*
X168822380Y-110746904D01*
X168822380Y-111127857D01*
X168870000Y-111223095D01*
X168917619Y-111270714D01*
X169012857Y-111318333D01*
X169155714Y-111318333D01*
X169250952Y-111270714D01*
X169298571Y-111223095D01*
X169346190Y-111127857D01*
X169346190Y-110746904D01*
X168822380Y-112175476D02*
X168822380Y-111985000D01*
X168870000Y-111889761D01*
X168917619Y-111842142D01*
X169060476Y-111746904D01*
X169250952Y-111699285D01*
X169631904Y-111699285D01*
X169727142Y-111746904D01*
X169774761Y-111794523D01*
X169822380Y-111889761D01*
X169822380Y-112080238D01*
X169774761Y-112175476D01*
X169727142Y-112223095D01*
X169631904Y-112270714D01*
X169393809Y-112270714D01*
X169298571Y-112223095D01*
X169250952Y-112175476D01*
X169203333Y-112080238D01*
X169203333Y-111889761D01*
X169250952Y-111794523D01*
X169298571Y-111746904D01*
X169393809Y-111699285D01*
X155679142Y-111593333D02*
X155726761Y-111545714D01*
X155774380Y-111402857D01*
X155774380Y-111307619D01*
X155726761Y-111164761D01*
X155631523Y-111069523D01*
X155536285Y-111021904D01*
X155345809Y-110974285D01*
X155202952Y-110974285D01*
X155012476Y-111021904D01*
X154917238Y-111069523D01*
X154822000Y-111164761D01*
X154774380Y-111307619D01*
X154774380Y-111402857D01*
X154822000Y-111545714D01*
X154869619Y-111593333D01*
X155774380Y-112545714D02*
X155774380Y-111974285D01*
X155774380Y-112260000D02*
X154774380Y-112260000D01*
X154917238Y-112164761D01*
X155012476Y-112069523D01*
X155060095Y-111974285D01*
D11*
X143816000Y-111244748D02*
X143816000Y-111767252D01*
X145236000Y-111244748D02*
X145236000Y-111767252D01*
X146864000Y-111244748D02*
X146864000Y-111767252D01*
X148284000Y-111244748D02*
X148284000Y-111767252D01*
X151332000Y-111244748D02*
X151332000Y-111767252D01*
X149912000Y-111244748D02*
X149912000Y-111767252D01*
X162167500Y-111631252D02*
X162167500Y-111108748D01*
X163587500Y-111631252D02*
X163587500Y-111108748D01*
X164470000Y-111651252D02*
X164470000Y-111128748D01*
X165890000Y-111651252D02*
X165890000Y-111128748D01*
X167010000Y-111746252D02*
X167010000Y-111223748D01*
X168430000Y-111746252D02*
X168430000Y-111223748D01*
X156262000Y-111498748D02*
X156262000Y-112021252D01*
X157682000Y-111498748D02*
X157682000Y-112021252D01*
%LPC*%
D12*
X140207194Y-112526177D03*
D13*
X139207194Y-112526177D03*
X140207194Y-111526177D03*
X139207194Y-111526177D03*
X140207194Y-110526177D03*
X139207194Y-110526177D03*
D12*
X172015380Y-112524372D03*
D13*
X171015380Y-112524372D03*
X172015380Y-111524372D03*
X171015380Y-111524372D03*
X172015380Y-110524372D03*
X171015380Y-110524372D03*
D14*
X144526000Y-110481000D03*
X144526000Y-112531000D03*
X147574000Y-110481000D03*
X147574000Y-112531000D03*
X150622000Y-110481000D03*
X150622000Y-112531000D03*
D15*
X162877500Y-112395000D03*
X162877500Y-110345000D03*
X165180000Y-112415000D03*
X165180000Y-110365000D03*
X167720000Y-112510000D03*
X167720000Y-110460000D03*
D14*
X156972000Y-110735000D03*
X156972000Y-112785000D03*
M02*
