M48
; DRILL file {KiCad (6.0.4)} date Wed Apr 13 12:38:11 2022
; FORMAT={-:-/ absolute / metric / decimal}
; #@! TF.CreationDate,2022-04-13T12:38:11-04:00
; #@! TF.GenerationSoftware,Kicad,Pcbnew,(6.0.4)
; #@! TF.FileFunction,Plated,1,2,PTH
FMAT,2
METRIC
; #@! TA.AperFunction,Plated,PTH,ViaDrill
T1C0.300
; #@! TA.AperFunction,Plated,PTH,ComponentDrill
T2C0.500
%
G90
G05
T1
X138.956Y-108.905
X139.158Y-114.035
X140.074Y-109.198
X141.02Y-109.7
X141.367Y-112.434
X142.0Y-110.68
X142.877Y-110.578
X143.348Y-113.484
X144.802Y-108.679
X145.73Y-112.437
X146.4Y-111.856
X146.724Y-113.575
X149.213Y-110.796
X149.401Y-108.802
X149.429Y-113.575
X155.422Y-108.735
X155.433Y-113.01
X155.55Y-111.811
X156.12Y-109.514
X160.367Y-109.541
X160.455Y-110.476
X160.785Y-113.76
X160.897Y-112.408
X162.017Y-111.35
X163.875Y-113.232
X163.982Y-110.735
X165.16Y-113.59
X166.403Y-111.816
X166.414Y-110.451
X168.573Y-111.491
X168.905Y-109.986
X169.04Y-112.742
X170.2Y-114.01
X170.92Y-113.96
X170.939Y-108.618
X172.664Y-108.776
T2
X139.207Y-110.526
X139.207Y-111.526
X139.207Y-112.526
X140.207Y-110.526
X140.207Y-111.526
X140.207Y-112.526
X171.015Y-110.524
X171.015Y-111.524
X171.015Y-112.524
X172.015Y-110.524
X172.015Y-111.524
X172.015Y-112.524
T0
M30
