G04 #@! TF.GenerationSoftware,KiCad,Pcbnew,(6.0.4)*
G04 #@! TF.CreationDate,2022-04-13T12:38:05-04:00*
G04 #@! TF.ProjectId,temp_proto_v2,74656d70-5f70-4726-9f74-6f5f76322e6b,rev?*
G04 #@! TF.SameCoordinates,Original*
G04 #@! TF.FileFunction,Soldermask,Top*
G04 #@! TF.FilePolarity,Negative*
%FSLAX46Y46*%
G04 Gerber Fmt 4.6, Leading zero omitted, Abs format (unit mm)*
G04 Created by KiCad (PCBNEW (6.0.4)) date 2022-04-13 12:38:05*
%MOMM*%
%LPD*%
G01*
G04 APERTURE LIST*
G04 Aperture macros list*
%AMRoundRect*
0 Rectangle with rounded corners*
0 $1 Rounding radius*
0 $2 $3 $4 $5 $6 $7 $8 $9 X,Y pos of 4 corners*
0 Add a 4 corners polygon primitive as box body*
4,1,4,$2,$3,$4,$5,$6,$7,$8,$9,$2,$3,0*
0 Add four circle primitives for the rounded corners*
1,1,$1+$1,$2,$3*
1,1,$1+$1,$4,$5*
1,1,$1+$1,$6,$7*
1,1,$1+$1,$8,$9*
0 Add four rect primitives between the rounded corners*
20,1,$1+$1,$2,$3,$4,$5,0*
20,1,$1+$1,$4,$5,$6,$7,0*
20,1,$1+$1,$6,$7,$8,$9,0*
20,1,$1+$1,$8,$9,$2,$3,0*%
G04 Aperture macros list end*
%ADD10RoundRect,0.050000X0.425000X0.425000X-0.425000X0.425000X-0.425000X-0.425000X0.425000X-0.425000X0*%
%ADD11O,0.950000X0.950000*%
%ADD12RoundRect,0.300000X-0.375000X-1.075000X0.375000X-1.075000X0.375000X1.075000X-0.375000X1.075000X0*%
%ADD13RoundRect,0.300000X0.375000X1.075000X-0.375000X1.075000X-0.375000X-1.075000X0.375000X-1.075000X0*%
%ADD14RoundRect,0.150000X-0.637500X-0.100000X0.637500X-0.100000X0.637500X0.100000X-0.637500X0.100000X0*%
G04 APERTURE END LIST*
D10*
X140207194Y-112526177D03*
D11*
X139207194Y-112526177D03*
X140207194Y-111526177D03*
X139207194Y-111526177D03*
X140207194Y-110526177D03*
X139207194Y-110526177D03*
D10*
X172015380Y-112524372D03*
D11*
X171015380Y-112524372D03*
X172015380Y-111524372D03*
X171015380Y-111524372D03*
X172015380Y-110524372D03*
X171015380Y-110524372D03*
D12*
X143181935Y-109562384D03*
X145981935Y-109562384D03*
X145411616Y-113464808D03*
X148211616Y-113464808D03*
X148007935Y-109562384D03*
X150807935Y-109562384D03*
D13*
X164687614Y-109496132D03*
X161887614Y-109496132D03*
X166345795Y-113462056D03*
X163545795Y-113462056D03*
D12*
X166408614Y-109481632D03*
X169208614Y-109481632D03*
D14*
X153347500Y-109231000D03*
X153347500Y-109881000D03*
X153347500Y-110531000D03*
X153347500Y-111181000D03*
X153347500Y-111831000D03*
X153347500Y-112481000D03*
X153347500Y-113131000D03*
X153347500Y-113781000D03*
X159072500Y-113781000D03*
X159072500Y-113131000D03*
X159072500Y-112481000D03*
X159072500Y-111831000D03*
X159072500Y-111181000D03*
X159072500Y-110531000D03*
X159072500Y-109881000D03*
X159072500Y-109231000D03*
M02*
