G04 #@! TF.GenerationSoftware,KiCad,Pcbnew,(6.0.4)*
G04 #@! TF.CreationDate,2022-04-13T12:38:05-04:00*
G04 #@! TF.ProjectId,temp_proto_v2,74656d70-5f70-4726-9f74-6f5f76322e6b,rev?*
G04 #@! TF.SameCoordinates,Original*
G04 #@! TF.FileFunction,Legend,Top*
G04 #@! TF.FilePolarity,Positive*
%FSLAX46Y46*%
G04 Gerber Fmt 4.6, Leading zero omitted, Abs format (unit mm)*
G04 Created by KiCad (PCBNEW (6.0.4)) date 2022-04-13 12:38:05*
%MOMM*%
%LPD*%
G01*
G04 APERTURE LIST*
G04 Aperture macros list*
%AMRoundRect*
0 Rectangle with rounded corners*
0 $1 Rounding radius*
0 $2 $3 $4 $5 $6 $7 $8 $9 X,Y pos of 4 corners*
0 Add a 4 corners polygon primitive as box body*
4,1,4,$2,$3,$4,$5,$6,$7,$8,$9,$2,$3,0*
0 Add four circle primitives for the rounded corners*
1,1,$1+$1,$2,$3*
1,1,$1+$1,$4,$5*
1,1,$1+$1,$6,$7*
1,1,$1+$1,$8,$9*
0 Add four rect primitives between the rounded corners*
20,1,$1+$1,$2,$3,$4,$5,0*
20,1,$1+$1,$4,$5,$6,$7,0*
20,1,$1+$1,$6,$7,$8,$9,0*
20,1,$1+$1,$8,$9,$2,$3,0*%
G04 Aperture macros list end*
%ADD10C,0.150000*%
%ADD11C,0.120000*%
%ADD12RoundRect,0.050000X0.425000X0.425000X-0.425000X0.425000X-0.425000X-0.425000X0.425000X-0.425000X0*%
%ADD13O,0.950000X0.950000*%
%ADD14RoundRect,0.300000X-0.375000X-1.075000X0.375000X-1.075000X0.375000X1.075000X-0.375000X1.075000X0*%
%ADD15RoundRect,0.300000X0.375000X1.075000X-0.375000X1.075000X-0.375000X-1.075000X0.375000X-1.075000X0*%
%ADD16RoundRect,0.150000X-0.637500X-0.100000X0.637500X-0.100000X0.637500X0.100000X-0.637500X0.100000X0*%
G04 APERTURE END LIST*
D10*
X139326666Y-113522380D02*
X139326666Y-114236666D01*
X139279047Y-114379523D01*
X139183809Y-114474761D01*
X139040952Y-114522380D01*
X138945714Y-114522380D01*
X140326666Y-114522380D02*
X139755238Y-114522380D01*
X140040952Y-114522380D02*
X140040952Y-113522380D01*
X139945714Y-113665238D01*
X139850476Y-113760476D01*
X139755238Y-113808095D01*
X171182046Y-113536752D02*
X171182046Y-114251038D01*
X171134427Y-114393895D01*
X171039189Y-114489133D01*
X170896332Y-114536752D01*
X170801094Y-114536752D01*
X171610618Y-113631991D02*
X171658237Y-113584372D01*
X171753475Y-113536752D01*
X171991570Y-113536752D01*
X172086808Y-113584372D01*
X172134427Y-113631991D01*
X172182046Y-113727229D01*
X172182046Y-113822467D01*
X172134427Y-113965324D01*
X171562999Y-114536752D01*
X172182046Y-114536752D01*
X141232380Y-110865714D02*
X141232380Y-110294285D01*
X142232380Y-110580000D02*
X141232380Y-110580000D01*
X142232380Y-109960952D02*
X141232380Y-109960952D01*
X141708571Y-109960952D02*
X141708571Y-109389523D01*
X142232380Y-109389523D02*
X141232380Y-109389523D01*
X142232380Y-108389523D02*
X142232380Y-108960952D01*
X142232380Y-108675238D02*
X141232380Y-108675238D01*
X141375238Y-108770476D01*
X141470476Y-108865714D01*
X141518095Y-108960952D01*
X145525901Y-110637188D02*
X146097330Y-110637188D01*
X145811616Y-111637188D02*
X145811616Y-110637188D01*
X146430663Y-111637188D02*
X146430663Y-110637188D01*
X146430663Y-111113379D02*
X147002092Y-111113379D01*
X147002092Y-111637188D02*
X147002092Y-110637188D01*
X147430663Y-110732427D02*
X147478282Y-110684808D01*
X147573520Y-110637188D01*
X147811616Y-110637188D01*
X147906854Y-110684808D01*
X147954473Y-110732427D01*
X148002092Y-110827665D01*
X148002092Y-110922903D01*
X147954473Y-111065760D01*
X147383044Y-111637188D01*
X148002092Y-111637188D01*
X150504815Y-113700098D02*
X150504815Y-113128669D01*
X151504815Y-113414384D02*
X150504815Y-113414384D01*
X151504815Y-112795336D02*
X150504815Y-112795336D01*
X150981006Y-112795336D02*
X150981006Y-112223907D01*
X151504815Y-112223907D02*
X150504815Y-112223907D01*
X150504815Y-111842955D02*
X150504815Y-111223907D01*
X150885768Y-111557241D01*
X150885768Y-111414384D01*
X150933387Y-111319145D01*
X150981006Y-111271526D01*
X151076244Y-111223907D01*
X151314339Y-111223907D01*
X151409577Y-111271526D01*
X151457196Y-111319145D01*
X151504815Y-111414384D01*
X151504815Y-111700098D01*
X151457196Y-111795336D01*
X151409577Y-111842955D01*
X160052380Y-110695714D02*
X160052380Y-110124285D01*
X161052380Y-110410000D02*
X160052380Y-110410000D01*
X161052380Y-109790952D02*
X160052380Y-109790952D01*
X160528571Y-109790952D02*
X160528571Y-109219523D01*
X161052380Y-109219523D02*
X160052380Y-109219523D01*
X160385714Y-108314761D02*
X161052380Y-108314761D01*
X160004761Y-108552857D02*
X160719047Y-108790952D01*
X160719047Y-108171904D01*
X161792380Y-114635714D02*
X161792380Y-114064285D01*
X162792380Y-114350000D02*
X161792380Y-114350000D01*
X162792380Y-113730952D02*
X161792380Y-113730952D01*
X162268571Y-113730952D02*
X162268571Y-113159523D01*
X162792380Y-113159523D02*
X161792380Y-113159523D01*
X161792380Y-112207142D02*
X161792380Y-112683333D01*
X162268571Y-112730952D01*
X162220952Y-112683333D01*
X162173333Y-112588095D01*
X162173333Y-112350000D01*
X162220952Y-112254761D01*
X162268571Y-112207142D01*
X162363809Y-112159523D01*
X162601904Y-112159523D01*
X162697142Y-112207142D01*
X162744761Y-112254761D01*
X162792380Y-112350000D01*
X162792380Y-112588095D01*
X162744761Y-112683333D01*
X162697142Y-112730952D01*
X167224285Y-111222380D02*
X167795714Y-111222380D01*
X167510000Y-112222380D02*
X167510000Y-111222380D01*
X168129047Y-112222380D02*
X168129047Y-111222380D01*
X168129047Y-111698571D02*
X168700476Y-111698571D01*
X168700476Y-112222380D02*
X168700476Y-111222380D01*
X169605238Y-111222380D02*
X169414761Y-111222380D01*
X169319523Y-111270000D01*
X169271904Y-111317619D01*
X169176666Y-111460476D01*
X169129047Y-111650952D01*
X169129047Y-112031904D01*
X169176666Y-112127142D01*
X169224285Y-112174761D01*
X169319523Y-112222380D01*
X169510000Y-112222380D01*
X169605238Y-112174761D01*
X169652857Y-112127142D01*
X169700476Y-112031904D01*
X169700476Y-111793809D01*
X169652857Y-111698571D01*
X169605238Y-111650952D01*
X169510000Y-111603333D01*
X169319523Y-111603333D01*
X169224285Y-111650952D01*
X169176666Y-111698571D01*
X169129047Y-111793809D01*
X155518095Y-110792380D02*
X155518095Y-111601904D01*
X155565714Y-111697142D01*
X155613333Y-111744761D01*
X155708571Y-111792380D01*
X155899047Y-111792380D01*
X155994285Y-111744761D01*
X156041904Y-111697142D01*
X156089523Y-111601904D01*
X156089523Y-110792380D01*
X157089523Y-111792380D02*
X156518095Y-111792380D01*
X156803809Y-111792380D02*
X156803809Y-110792380D01*
X156708571Y-110935238D01*
X156613333Y-111030476D01*
X156518095Y-111078095D01*
D11*
X140917194Y-112526177D02*
X140917194Y-113211177D01*
X138812701Y-109966177D02*
X138497194Y-109966177D01*
X140917194Y-111841177D02*
X140917194Y-109966177D01*
X138812701Y-113086177D02*
X138497194Y-113086177D01*
X140917194Y-111841177D02*
X140815470Y-111841177D01*
X139812701Y-109966177D02*
X139601687Y-109966177D01*
X140917194Y-113211177D02*
X140207194Y-113211177D01*
X138497194Y-113086177D02*
X138497194Y-109966177D01*
X140917194Y-109966177D02*
X140601687Y-109966177D01*
X170620887Y-113084372D02*
X170305380Y-113084372D01*
X170305380Y-113084372D02*
X170305380Y-109964372D01*
X172725380Y-111839372D02*
X172623656Y-111839372D01*
X172725380Y-112524372D02*
X172725380Y-113209372D01*
X171620887Y-109964372D02*
X171409873Y-109964372D01*
X172725380Y-113209372D02*
X172015380Y-113209372D01*
X172725380Y-109964372D02*
X172409873Y-109964372D01*
X172725380Y-111839372D02*
X172725380Y-109964372D01*
X170620887Y-109964372D02*
X170305380Y-109964372D01*
X146181935Y-107977384D02*
X142296935Y-107977384D01*
X142296935Y-107977384D02*
X142296935Y-111147384D01*
X142296935Y-111147384D02*
X146181935Y-111147384D01*
X144526616Y-111879808D02*
X144526616Y-115049808D01*
X144526616Y-115049808D02*
X148411616Y-115049808D01*
X148411616Y-111879808D02*
X144526616Y-111879808D01*
X147122935Y-111147384D02*
X151007935Y-111147384D01*
X151007935Y-107977384D02*
X147122935Y-107977384D01*
X147122935Y-107977384D02*
X147122935Y-111147384D01*
X165572614Y-107911132D02*
X161687614Y-107911132D01*
X165572614Y-111081132D02*
X165572614Y-107911132D01*
X161687614Y-111081132D02*
X165572614Y-111081132D01*
X163345795Y-115047056D02*
X167230795Y-115047056D01*
X167230795Y-111877056D02*
X163345795Y-111877056D01*
X167230795Y-115047056D02*
X167230795Y-111877056D01*
X169408614Y-107896632D02*
X165523614Y-107896632D01*
X165523614Y-111066632D02*
X169408614Y-111066632D01*
X165523614Y-107896632D02*
X165523614Y-111066632D01*
X156210000Y-114241000D02*
X154010000Y-114241000D01*
X156210000Y-108771000D02*
X158410000Y-108771000D01*
X156210000Y-108771000D02*
X152610000Y-108771000D01*
X156210000Y-114241000D02*
X158410000Y-114241000D01*
%LPC*%
D12*
X140207194Y-112526177D03*
D13*
X139207194Y-112526177D03*
X140207194Y-111526177D03*
X139207194Y-111526177D03*
X140207194Y-110526177D03*
X139207194Y-110526177D03*
D12*
X172015380Y-112524372D03*
D13*
X171015380Y-112524372D03*
X172015380Y-111524372D03*
X171015380Y-111524372D03*
X172015380Y-110524372D03*
X171015380Y-110524372D03*
D14*
X143181935Y-109562384D03*
X145981935Y-109562384D03*
X145411616Y-113464808D03*
X148211616Y-113464808D03*
X148007935Y-109562384D03*
X150807935Y-109562384D03*
D15*
X164687614Y-109496132D03*
X161887614Y-109496132D03*
X166345795Y-113462056D03*
X163545795Y-113462056D03*
D14*
X166408614Y-109481632D03*
X169208614Y-109481632D03*
D16*
X153347500Y-109231000D03*
X153347500Y-109881000D03*
X153347500Y-110531000D03*
X153347500Y-111181000D03*
X153347500Y-111831000D03*
X153347500Y-112481000D03*
X153347500Y-113131000D03*
X153347500Y-113781000D03*
X159072500Y-113781000D03*
X159072500Y-113131000D03*
X159072500Y-112481000D03*
X159072500Y-111831000D03*
X159072500Y-111181000D03*
X159072500Y-110531000D03*
X159072500Y-109881000D03*
X159072500Y-109231000D03*
M02*
